<svg id="Layer_1" data-name="Layer 1" xmlns="http://www.w3.org/2000/svg" viewBox="0 0 595.28 841.89"><defs><style>.cls-1,.cls-2,.cls-3{fill:none;stroke:#000;}.cls-1{stroke-width:2px;}.cls-2{stroke-dasharray:3.99 3.99;}.cls-3{stroke-dasharray:3.99 3.99;}</style></defs><title>meeting-card-vectors</title><path d="M44.86,42.79v6H41v-6l-6.51-10.8H38.6l4.49,7.47,4.49-7.47h3.81Z" transform="translate(0 0)"/><path d="M54,48.08a6.29,6.29,0,0,1-2.54-2.36,6.92,6.92,0,0,1,0-6.86A6.38,6.38,0,0,1,54,36.49a7.72,7.72,0,0,1,3.66-.85,7.61,7.61,0,0,1,3.64.85,6.26,6.26,0,0,1,2.52,2.37,6.85,6.85,0,0,1,0,6.86,6.17,6.17,0,0,1-2.52,2.36,7.61,7.61,0,0,1-3.64.86A7.72,7.72,0,0,1,54,48.08Zm6-3.19a4.15,4.15,0,0,0,0-5.21,3.14,3.14,0,0,0-2.36-1,3.19,3.19,0,0,0-2.38,1,4.08,4.08,0,0,0,0,5.21,3.15,3.15,0,0,0,2.38,1A3.11,3.11,0,0,0,60,44.89Z" transform="translate(0 0)"/><path d="M80.24,35.83V48.74H76.69V47.21a4.92,4.92,0,0,1-1.78,1.28,6.08,6.08,0,0,1-6.26-1,5.83,5.83,0,0,1-1.49-4.34v-7.3H70.9v6.75c0,2.08.88,3.12,2.62,3.12a2.82,2.82,0,0,0,2.16-.88,3.7,3.7,0,0,0,.82-2.6V35.83Z" transform="translate(0 0)"/><path d="M86.82,31.38a2.23,2.23,0,0,1,.64,1.67,4,4,0,0,1-.12,1,13.5,13.5,0,0,1-.5,1.44L85.45,38.9H83.07l1-3.79a2,2,0,0,1-.93-.79,2.27,2.27,0,0,1-.34-1.27,2.21,2.21,0,0,1,.66-1.67,2.33,2.33,0,0,1,1.67-.64A2.31,2.31,0,0,1,86.82,31.38Z" transform="translate(0 0)"/><path d="M95.4,36.12A6.69,6.69,0,0,1,98,35.64V39.1c-.41,0-.69-.05-.84-.05a3.44,3.44,0,0,0-2.52.9,3.67,3.67,0,0,0-.91,2.7v6.09H90V35.83h3.57v1.71A4.16,4.16,0,0,1,95.4,36.12Z" transform="translate(0 0)"/><path d="M112.93,43.34h-9.77a3,3,0,0,0,1.25,1.9,4.14,4.14,0,0,0,2.44.7,4.94,4.94,0,0,0,1.79-.3,4.42,4.42,0,0,0,1.46-1l2,2.16a6.72,6.72,0,0,1-5.33,2.09,8.35,8.35,0,0,1-3.86-.86,6.15,6.15,0,0,1-2.6-2.36,6.49,6.49,0,0,1-.91-3.43,6.57,6.57,0,0,1,.9-3.42,6.28,6.28,0,0,1,2.47-2.38,7.24,7.24,0,0,1,3.52-.85,7.13,7.13,0,0,1,3.43.82,5.9,5.9,0,0,1,2.41,2.34,6.89,6.89,0,0,1,.88,3.54S113,42.72,112.93,43.34Zm-8.76-4.15a3.07,3.07,0,0,0-1.06,2h6.36a3.13,3.13,0,0,0-1-2,3.23,3.23,0,0,0-2.12-.73A3.19,3.19,0,0,0,104.17,39.19Z" transform="translate(0 0)"/><path d="M26.62,63.07v4.44H34.4v3.12H26.62v6.12H22.74V60H35.43v3.12Z" transform="translate(0 0)"/><path d="M48.78,76.75l-3.24-4.68H42v4.68H38.07V60h7.27a9.29,9.29,0,0,1,3.88.75,5.69,5.69,0,0,1,2.53,2.11,5.83,5.83,0,0,1,.89,3.24,5.45,5.45,0,0,1-3.46,5.3L53,76.75Zm-1-12.87a4,4,0,0,0-2.66-.76H42V69h3.17a4,4,0,0,0,2.66-.77,3,3,0,0,0,0-4.33Z" transform="translate(0 0)"/><path d="M59,75.91A8.35,8.35,0,0,1,55.7,72.8a8.92,8.92,0,0,1,0-8.9A8.35,8.35,0,0,1,59,60.79a10.38,10.38,0,0,1,9.42,0,8.57,8.57,0,0,1,0,15.12,10.38,10.38,0,0,1-9.42,0ZM66.39,73a4.93,4.93,0,0,0,1.89-1.9A5.71,5.71,0,0,0,69,68.35a5.64,5.64,0,0,0-.68-2.78,5,5,0,0,0-1.89-1.91,5.64,5.64,0,0,0-5.37,0,4.89,4.89,0,0,0-1.89,1.91,5.64,5.64,0,0,0-.68,2.78,5.71,5.71,0,0,0,.68,2.79A4.86,4.86,0,0,0,61,73a5.57,5.57,0,0,0,5.37,0Z" transform="translate(0 0)"/><path d="M89.12,73.58v3.17H74.43V74.23l9.22-11.11h-9V60H88.76v2.52L79.57,73.58Z" transform="translate(0 0)"/><path d="M104.62,73.63v3.12h-13V60h12.7v3.12H95.48v3.65h7.8v3h-7.8v3.89Z" transform="translate(0 0)"/><path d="M123.13,60v16.8h-3.2l-8.37-10.2v10.2h-3.84V60h3.21l8.36,10.2V60Z" transform="translate(0 0)"/><path d="M42.3,245.59H36.92v-3.17H51.56v3.17H46.18v13.63H42.3Z" transform="translate(0 0)"/><path d="M58.77,246.6a6.74,6.74,0,0,1,2.63-.48v3.46c-.42,0-.7-.05-.84-.05a3.44,3.44,0,0,0-2.52.9,3.63,3.63,0,0,0-.91,2.7v6.09H53.38V246.31H57V248A4.13,4.13,0,0,1,58.77,246.6Z" transform="translate(0 0)"/><path d="M76.54,246.31,70.71,260a6.78,6.78,0,0,1-2.19,3.14,5.4,5.4,0,0,1-3.16.91,6.46,6.46,0,0,1-2-.31,4.56,4.56,0,0,1-1.61-.86l1.37-2.67a3.13,3.13,0,0,0,1,.6,3,3,0,0,0,1.12.22,2,2,0,0,0,1.25-.37,3.1,3.1,0,0,0,.86-1.24l.05-.12-5.59-13h3.86l3.63,8.76,3.64-8.76Z" transform="translate(0 0)"/><path d="M93.2,258.6a3.78,3.78,0,0,1-1.36.61,6.63,6.63,0,0,1-1.69.21,5,5,0,0,1-3.56-1.18,4.5,4.5,0,0,1-1.26-3.46v-5.3h-2V246.6h2v-3.14h3.74v3.14h3.22v2.88H89.07v5.26a1.78,1.78,0,0,0,.42,1.26,1.58,1.58,0,0,0,1.19.44,2.41,2.41,0,0,0,1.51-.48Z" transform="translate(0 0)"/><path d="M97.67,258.56a6.26,6.26,0,0,1-2.53-2.36,6.92,6.92,0,0,1,0-6.86A6.36,6.36,0,0,1,97.67,247a8.28,8.28,0,0,1,7.31,0,6.39,6.39,0,0,1,2.52,2.37,6.85,6.85,0,0,1,0,6.86,6.3,6.3,0,0,1-2.52,2.36,8.2,8.2,0,0,1-7.31,0Zm6-3.19a4.15,4.15,0,0,0,0-5.21,3.38,3.38,0,0,0-4.74,0,4.08,4.08,0,0,0,0,5.21,3.38,3.38,0,0,0,4.74,0Z" transform="translate(0 0)"/><path d="M33.27,287.23,30,282.55H26.46v4.68H22.57v-16.8h7.27a9.29,9.29,0,0,1,3.88.75,5.74,5.74,0,0,1,2.53,2.11,5.83,5.83,0,0,1,.89,3.24,5.45,5.45,0,0,1-3.46,5.3l3.77,5.4Zm-1-12.87a4.07,4.07,0,0,0-2.67-.76H26.46v5.86h3.16a4.07,4.07,0,0,0,2.67-.77,3,3,0,0,0,0-4.33Z" transform="translate(0 0)"/><path d="M53.22,284.11v3.12h-13v-16.8H52.9v3.12H44.07v3.65h7.8v3h-7.8v3.89Z" transform="translate(0 0)"/><path d="M70.9,280a4.17,4.17,0,0,1,.82,2.63A3.86,3.86,0,0,1,70,286a8.69,8.69,0,0,1-5,1.19H56.31v-16.8h8.21a8,8,0,0,1,4.72,1.18,3.73,3.73,0,0,1,1.64,3.19,4.09,4.09,0,0,1-.59,2.18,4.15,4.15,0,0,1-1.64,1.52A4.38,4.38,0,0,1,70.9,280Zm-10.72-6.66v4H64a3.93,3.93,0,0,0,2.18-.5,1.69,1.69,0,0,0,.75-1.49,1.65,1.65,0,0,0-.75-1.48,3.93,3.93,0,0,0-2.18-.49ZM67,283.8a1.73,1.73,0,0,0,.78-1.56c0-1.39-1-2.09-3.1-2.09H60.18v4.15h4.53A4.3,4.3,0,0,0,67,283.8Z" transform="translate(0 0)"/><path d="M78.09,286.39a8.57,8.57,0,0,1,0-15.12,10.38,10.38,0,0,1,9.42,0,8.57,8.57,0,0,1,0,15.12,10.38,10.38,0,0,1-9.42,0Zm7.41-2.87a5,5,0,0,0,1.88-1.9,5.71,5.71,0,0,0,.68-2.79,5.64,5.64,0,0,0-.68-2.78,5,5,0,0,0-1.88-1.91,5.66,5.66,0,0,0-5.38,0,4.86,4.86,0,0,0-1.88,1.91,5.54,5.54,0,0,0-.69,2.78,5.6,5.6,0,0,0,.69,2.79,4.84,4.84,0,0,0,1.88,1.9,5.59,5.59,0,0,0,5.38,0Z" transform="translate(0 0)"/><path d="M98.35,286.39a8.35,8.35,0,0,1-3.29-3.11,8.92,8.92,0,0,1,0-8.9,8.35,8.35,0,0,1,3.29-3.11,10.38,10.38,0,0,1,9.42,0,8.57,8.57,0,0,1,0,15.12,10.38,10.38,0,0,1-9.42,0Zm7.4-2.87a4.93,4.93,0,0,0,1.89-1.9,5.71,5.71,0,0,0,.68-2.79,5.64,5.64,0,0,0-.68-2.78,5,5,0,0,0-1.89-1.91,5.64,5.64,0,0,0-5.37,0,4.89,4.89,0,0,0-1.89,1.91,5.64,5.64,0,0,0-.68,2.78,5.71,5.71,0,0,0,.68,2.79,4.86,4.86,0,0,0,1.89,1.9,5.57,5.57,0,0,0,5.37,0Z" transform="translate(0 0)"/><path d="M118.23,273.6h-5.38v-3.17h14.64v3.17h-5.37v13.63h-3.89Z" transform="translate(0 0)"/><path d="M196.35,461h3.55v6.82a10.29,10.29,0,0,1-3.16,1.58,12.25,12.25,0,0,1-3.63.55,9.85,9.85,0,0,1-4.7-1.11,8.37,8.37,0,0,1-3.28-3.1,9,9,0,0,1,0-8.95,8.29,8.29,0,0,1,3.3-3.1,10.05,10.05,0,0,1,4.75-1.11,10.31,10.31,0,0,1,4,.74,8.08,8.08,0,0,1,3,2.16l-2.5,2.3a5.78,5.78,0,0,0-4.34-1.89,5.89,5.89,0,0,0-2.86.67,4.8,4.8,0,0,0-1.94,1.9,5.93,5.93,0,0,0,0,5.59,4.92,4.92,0,0,0,1.93,1.91,5.77,5.77,0,0,0,2.82.68,6.27,6.27,0,0,0,3-.72Z" transform="translate(0 0)"/><path d="M205.72,469a6.26,6.26,0,0,1-2.53-2.36,6.92,6.92,0,0,1,0-6.86,6.36,6.36,0,0,1,2.53-2.37,8.28,8.28,0,0,1,7.31,0,6.39,6.39,0,0,1,2.52,2.37,6.92,6.92,0,0,1,0,6.86A6.3,6.3,0,0,1,213,469a8.2,8.2,0,0,1-7.31,0Zm6-3.19a4.15,4.15,0,0,0,0-5.21,3.38,3.38,0,0,0-4.74,0,4.08,4.08,0,0,0,0,5.21,3.38,3.38,0,0,0,4.74,0Z" transform="translate(0 0)"/><path d="M227.07,469.08a3.81,3.81,0,0,1-1.35.61,6.71,6.71,0,0,1-1.7.21,5,5,0,0,1-3.56-1.18,4.5,4.5,0,0,1-1.26-3.46V460h-2v-2.88h2v-3.14h3.74v3.14h3.22V460h-3.22v5.26a1.78,1.78,0,0,0,.42,1.26,1.58,1.58,0,0,0,1.19.44,2.39,2.39,0,0,0,1.51-.48Z" transform="translate(0 0)"/><path d="M244.3,469.08a3.73,3.73,0,0,1-1.35.61,6.69,6.69,0,0,1-1.69.21,5.06,5.06,0,0,1-3.57-1.18,4.5,4.5,0,0,1-1.26-3.46V460h-2v-2.88h2v-3.14h3.75v3.14h3.21V460h-3.21v5.26a1.78,1.78,0,0,0,.42,1.26,1.56,1.56,0,0,0,1.18.44,2.42,2.42,0,0,0,1.52-.48Z" transform="translate(0 0)"/><path d="M248.78,469a6.26,6.26,0,0,1-2.53-2.36,6.92,6.92,0,0,1,0-6.86,6.36,6.36,0,0,1,2.53-2.37,8.28,8.28,0,0,1,7.31,0,6.39,6.39,0,0,1,2.52,2.37,6.92,6.92,0,0,1,0,6.86,6.3,6.3,0,0,1-2.52,2.36,8.2,8.2,0,0,1-7.31,0Zm6-3.19a4.11,4.11,0,0,0,0-5.21,3.13,3.13,0,0,0-2.36-1,3.2,3.2,0,0,0-2.38,1,4.11,4.11,0,0,0,0,5.21,3.17,3.17,0,0,0,2.38,1A3.09,3.09,0,0,0,254.8,465.85Z" transform="translate(0 0)"/><path d="M211.76,489.05h3.55v6.81a10.15,10.15,0,0,1-3.17,1.59,12.52,12.52,0,0,1-3.62.55,9.74,9.74,0,0,1-4.7-1.12,8.21,8.21,0,0,1-3.28-3.09,9,9,0,0,1,0-9,8.22,8.22,0,0,1,3.3-3.1,10.06,10.06,0,0,1,4.75-1.12,10.34,10.34,0,0,1,4,.75,7.76,7.76,0,0,1,3,2.16l-2.49,2.3a5.8,5.8,0,0,0-4.35-1.9,5.89,5.89,0,0,0-2.85.68,4.92,4.92,0,0,0-2,1.89,6,6,0,0,0,0,5.6,4.92,4.92,0,0,0,1.94,1.9,5.66,5.66,0,0,0,2.82.69,6.3,6.3,0,0,0,3-.72Z" transform="translate(0 0)"/><path d="M222.33,496.87a8.57,8.57,0,0,1,0-15.12,10.38,10.38,0,0,1,9.42,0,8.57,8.57,0,0,1,0,15.12,10.38,10.38,0,0,1-9.42,0Zm7.41-2.87a4.9,4.9,0,0,0,1.88-1.9,5.6,5.6,0,0,0,.68-2.79,5.53,5.53,0,0,0-.68-2.78,4.93,4.93,0,0,0-1.88-1.91,5.59,5.59,0,0,0-5.38,0,4.86,4.86,0,0,0-1.88,1.91,5.54,5.54,0,0,0-.69,2.78,5.6,5.6,0,0,0,.69,2.79,4.84,4.84,0,0,0,1.88,1.9,5.59,5.59,0,0,0,5.38,0Z" transform="translate(0 0)"/><path d="M239,497.27a2.08,2.08,0,0,1-.66-1.55,2,2,0,0,1,.65-1.52,2.52,2.52,0,0,1,3.31,0,2,2,0,0,1,.65,1.52,2.08,2.08,0,0,1-.66,1.55,2.46,2.46,0,0,1-3.29,0Zm-.59-16.36h4.47l-.75,11h-3Z" transform="translate(0 0)"/><path d="M40.64,673a4.23,4.23,0,0,1,.82,2.63,3.91,3.91,0,0,1-1.72,3.4,8.77,8.77,0,0,1-5,1.18H26.05v-16.8h8.21A8,8,0,0,1,39,664.56a3.71,3.71,0,0,1,1.65,3.19,4,4,0,0,1-2.24,3.7A4.41,4.41,0,0,1,40.64,673Zm-10.73-6.66v4h3.87a4,4,0,0,0,2.18-.5,1.67,1.67,0,0,0,.74-1.49A1.64,1.64,0,0,0,36,666.8a4,4,0,0,0-2.18-.49Zm6.85,10.44a1.71,1.71,0,0,0,.78-1.56c0-1.39-1-2.09-3.09-2.09H29.91v4.16h4.54A4.25,4.25,0,0,0,36.76,676.75Z" transform="translate(0 0)"/><path d="M56.72,674.78H47a3,3,0,0,0,1.25,1.9,4.17,4.17,0,0,0,2.45.7,5,5,0,0,0,1.79-.3,4.38,4.38,0,0,0,1.45-1l2,2.16a6.71,6.71,0,0,1-5.33,2.09,8.41,8.41,0,0,1-3.86-.86,6.12,6.12,0,0,1-2.59-2.36,6.5,6.5,0,0,1-.92-3.43,6.57,6.57,0,0,1,.9-3.42,6.31,6.31,0,0,1,2.48-2.38,7.21,7.21,0,0,1,3.51-.85,7.1,7.1,0,0,1,3.43.82,5.93,5.93,0,0,1,2.42,2.34,7,7,0,0,1,.87,3.54S56.77,674.16,56.72,674.78ZM48,670.63a3.07,3.07,0,0,0-1.06,2h6.36a3.08,3.08,0,0,0-1-2,3.2,3.2,0,0,0-2.11-.73A3.24,3.24,0,0,0,48,670.63Z" transform="translate(0 0)"/><path d="M71.47,667.56a6.71,6.71,0,0,1,2.63-.48v3.46c-.42,0-.7,0-.84,0a3.41,3.41,0,0,0-2.52.9,3.63,3.63,0,0,0-.92,2.7v6.09H66.08V667.27h3.58V669A4.08,4.08,0,0,1,71.47,667.56Z" transform="translate(0 0)"/><path d="M76.62,664.87a2,2,0,0,1,0-3,2.37,2.37,0,0,1,1.68-.6,2.48,2.48,0,0,1,1.68.57,1.86,1.86,0,0,1,.64,1.44,2,2,0,0,1-.64,1.55,2.64,2.64,0,0,1-3.36,0Zm-.2,2.4h3.75v12.91H76.42Z" transform="translate(0 0)"/><path d="M97,667.27V678q0,3.56-1.85,5.28a7.59,7.59,0,0,1-5.4,1.73,13.65,13.65,0,0,1-3.55-.45,8,8,0,0,1-2.79-1.32l1.49-2.69a6.12,6.12,0,0,0,2.07,1.07,8.29,8.29,0,0,0,2.49.39,4.07,4.07,0,0,0,2.87-.87,3.53,3.53,0,0,0,.92-2.66V678a5.23,5.23,0,0,1-4.08,1.61,6.87,6.87,0,0,1-3.25-.78,6,6,0,0,1-2.34-2.2,6.61,6.61,0,0,1,0-6.52,6,6,0,0,1,2.34-2.2,6.87,6.87,0,0,1,3.25-.78,5.14,5.14,0,0,1,4.28,1.85v-1.66Zm-4.65,8.34a3.24,3.24,0,0,0,0-4.58,3.41,3.41,0,0,0-2.43-.88,3.46,3.46,0,0,0-2.45.88,3.21,3.21,0,0,0,0,4.58,3.46,3.46,0,0,0,2.45.88A3.41,3.41,0,0,0,92.32,675.61Z" transform="translate(0 0)"/><path d="M112.17,668.52a5.68,5.68,0,0,1,1.48,4.27v7.39H109.9v-6.81a3.33,3.33,0,0,0-.67-2.29,2.44,2.44,0,0,0-1.94-.76,3,3,0,0,0-2.26.88,3.61,3.61,0,0,0-.84,2.6v6.38h-3.74v-17.8h3.74v6.24a4.94,4.94,0,0,1,1.8-1.14,6.41,6.41,0,0,1,2.31-.4A5.29,5.29,0,0,1,112.17,668.52Z" transform="translate(0 0)"/><path d="M125.36,679.56a3.78,3.78,0,0,1-1.36.61,6.63,6.63,0,0,1-1.69.21,5,5,0,0,1-3.56-1.18,4.5,4.5,0,0,1-1.26-3.46v-5.3h-2v-2.88h2v-3.14h3.74v3.14h3.22v2.88h-3.22v5.26a1.78,1.78,0,0,0,.42,1.26,1.58,1.58,0,0,0,1.19.44,2.41,2.41,0,0,0,1.51-.48Z" transform="translate(0 0)"/><path d="M51.91,695.92a5.92,5.92,0,0,1,2.31,2.32,7.69,7.69,0,0,1,0,7,6,6,0,0,1-2.31,2.33,6.63,6.63,0,0,1-3.28.82,5,5,0,0,1-4.05-1.68v1.49H41V690.38h3.74v6.27a5,5,0,0,1,3.89-1.56A6.53,6.53,0,0,1,51.91,695.92Zm-1.56,8.42a4.15,4.15,0,0,0,0-5.21,3.37,3.37,0,0,0-4.73,0,4.15,4.15,0,0,0,0,5.21,3.37,3.37,0,0,0,4.73,0Z" transform="translate(0 0)"/><path d="M67.38,696.52a5.45,5.45,0,0,1,1.6,4.3v7.37h-3.5v-1.61c-.7,1.2-2,1.8-3.94,1.8a6.06,6.06,0,0,1-2.58-.5,3.88,3.88,0,0,1-1.66-1.39,3.59,3.59,0,0,1-.58-2,3.35,3.35,0,0,1,1.36-2.83,6.88,6.88,0,0,1,4.18-1h3a2.41,2.41,0,0,0-.74-1.89,3.29,3.29,0,0,0-2.24-.66,6.38,6.38,0,0,0-2,.33,5.44,5.44,0,0,0-1.7.87l-1.34-2.61a8,8,0,0,1,2.53-1.15,11.09,11.09,0,0,1,3-.41A6.7,6.7,0,0,1,67.38,696.52Zm-3.2,8.9a2.43,2.43,0,0,0,1.06-1.31v-1.32H62.67c-1.53,0-2.3.51-2.3,1.51a1.36,1.36,0,0,0,.56,1.14,2.55,2.55,0,0,0,1.55.42A3.19,3.19,0,0,0,64.18,705.42Z" transform="translate(0 0)"/><path d="M74.9,707.53a6.38,6.38,0,0,1-2.57-2.36,6.5,6.5,0,0,1,2.57-9.23,7.92,7.92,0,0,1,3.71-.85,7.13,7.13,0,0,1,3.56.85,5,5,0,0,1,2.22,2.44l-2.9,1.56a3.17,3.17,0,0,0-2.91-1.78,3.29,3.29,0,0,0-2.42,1,4,4,0,0,0,0,5.23,3.29,3.29,0,0,0,2.42,1,3.16,3.16,0,0,0,2.91-1.77l2.9,1.58a5.15,5.15,0,0,1-2.22,2.4,7,7,0,0,1-3.56.86A7.92,7.92,0,0,1,74.9,707.53Z" transform="translate(0 0)"/><path d="M92.1,703.13l-1.8,1.77v3.29H86.55V690.38H90.3v10.08l5.47-5.18h4.46l-5.37,5.47,5.85,7.44H96.18Z" transform="translate(0 0)"/><path d="M102.5,707.75a2.08,2.08,0,0,1-.66-1.55,2,2,0,0,1,.65-1.52,2.3,2.3,0,0,1,1.65-.62,2.32,2.32,0,0,1,1.66.62,2,2,0,0,1,.65,1.52,2.08,2.08,0,0,1-.66,1.55,2.46,2.46,0,0,1-3.29,0Zm-.59-16.36h4.47l-.75,11h-3Z" transform="translate(0 0)"/><path d="M194.42,664.13a5.69,5.69,0,0,1,2.53,2.11,6.32,6.32,0,0,1,0,6.47,5.63,5.63,0,0,1-2.53,2.11,9.46,9.46,0,0,1-3.88.73h-3.38v4.63h-3.89v-16.8h7.27A9.29,9.29,0,0,1,194.42,664.13Zm-1.43,7.5a3,3,0,0,0,0-4.32,4,4,0,0,0-2.66-.76h-3.17v5.83h3.17A4.09,4.09,0,0,0,193,671.63Z" transform="translate(0 0)"/><path d="M200.58,662.38h3.74v17.8h-3.74Z" transform="translate(0 0)"/><path d="M220.38,674.78h-9.77a3,3,0,0,0,1.25,1.9,4.14,4.14,0,0,0,2.44.7,4.94,4.94,0,0,0,1.79-.3,4.28,4.28,0,0,0,1.45-1l2,2.16a6.72,6.72,0,0,1-5.33,2.09,8.42,8.42,0,0,1-3.87-.86,6.18,6.18,0,0,1-2.59-2.36,6.49,6.49,0,0,1-.91-3.43,6.57,6.57,0,0,1,.9-3.42,6.28,6.28,0,0,1,2.47-2.38,7.24,7.24,0,0,1,3.52-.85,7.13,7.13,0,0,1,3.43.82,5.9,5.9,0,0,1,2.41,2.34,6.89,6.89,0,0,1,.88,3.54S220.42,674.16,220.38,674.78Zm-8.76-4.15a3.07,3.07,0,0,0-1.06,2h6.36a3.1,3.1,0,0,0-1.06-2,3.46,3.46,0,0,0-4.24,0Z" transform="translate(0 0)"/><path d="M232.76,668.51a5.47,5.47,0,0,1,1.61,4.31v7.36h-3.51v-1.6q-1.05,1.8-3.93,1.8a6.06,6.06,0,0,1-2.58-.51,3.79,3.79,0,0,1-1.67-1.39,3.65,3.65,0,0,1-.58-2,3.38,3.38,0,0,1,1.36-2.83,6.89,6.89,0,0,1,4.19-1h3a2.36,2.36,0,0,0-.74-1.88,3.28,3.28,0,0,0-2.23-.66,6.38,6.38,0,0,0-2,.32,5.4,5.4,0,0,0-1.69.88l-1.35-2.62a8,8,0,0,1,2.54-1.15,11.36,11.36,0,0,1,3-.41A6.73,6.73,0,0,1,232.76,668.51Zm-3.19,8.9a2.38,2.38,0,0,0,1.05-1.31v-1.32h-2.56c-1.54,0-2.31.51-2.31,1.52a1.34,1.34,0,0,0,.57,1.14,2.51,2.51,0,0,0,1.54.42A3.26,3.26,0,0,0,229.57,677.41Z" transform="translate(0 0)"/><path d="M239,680a8.19,8.19,0,0,1-2.45-1l1.25-2.68a8.43,8.43,0,0,0,2.09.9,8.85,8.85,0,0,0,2.4.34c1.58,0,2.38-.39,2.38-1.17a.83.83,0,0,0-.65-.79,9.48,9.48,0,0,0-2-.41,20.56,20.56,0,0,1-2.62-.55,4.1,4.1,0,0,1-1.79-1.11,3.15,3.15,0,0,1-.75-2.25,3.57,3.57,0,0,1,.7-2.18,4.58,4.58,0,0,1,2.07-1.47,8.83,8.83,0,0,1,3.2-.53,12.68,12.68,0,0,1,2.73.3,7.66,7.66,0,0,1,2.24.83l-1.25,2.66a7.42,7.42,0,0,0-3.72-1,3.71,3.71,0,0,0-1.8.34,1,1,0,0,0-.6.86.86.86,0,0,0,.65.84,11.93,11.93,0,0,0,2.06.46,21.36,21.36,0,0,1,2.6.56,4,4,0,0,1,1.75,1.09,3.14,3.14,0,0,1,.74,2.21,3.43,3.43,0,0,1-.72,2.14,4.59,4.59,0,0,1-2.1,1.45,9.43,9.43,0,0,1-3.27.52A12.77,12.77,0,0,1,239,680Z" transform="translate(0 0)"/><path d="M263.07,674.78H253.3a3.08,3.08,0,0,0,1.25,1.9,4.17,4.17,0,0,0,2.45.7,5,5,0,0,0,1.79-.3,4.38,4.38,0,0,0,1.45-1l2,2.16a6.69,6.69,0,0,1-5.33,2.09,8.41,8.41,0,0,1-3.86-.86,6.18,6.18,0,0,1-2.59-2.36,6.93,6.93,0,0,1,0-6.85,6.28,6.28,0,0,1,2.47-2.38,7.23,7.23,0,0,1,3.51-.85,7.1,7.1,0,0,1,3.43.82,5.93,5.93,0,0,1,2.42,2.34,7,7,0,0,1,.87,3.54S263.12,674.16,263.07,674.78Zm-8.76-4.15a3.07,3.07,0,0,0-1.06,2h6.37a3.1,3.1,0,0,0-1.06-2,3.2,3.2,0,0,0-2.11-.73A3.24,3.24,0,0,0,254.31,670.63Z" transform="translate(0 0)"/><path d="M188.13,695.57a6.74,6.74,0,0,1,2.63-.48v3.45l-.84,0a3.44,3.44,0,0,0-2.52.9,3.63,3.63,0,0,0-.91,2.7v6.09h-3.75V695.28h3.58V697A4.19,4.19,0,0,1,188.13,695.57Z" transform="translate(0 0)"/><path d="M205.66,702.79H195.9a3.06,3.06,0,0,0,1.24,1.9,4.19,4.19,0,0,0,2.45.69,5,5,0,0,0,1.79-.3,4.35,4.35,0,0,0,1.45-.94l2,2.16a6.68,6.68,0,0,1-5.32,2.08,8.42,8.42,0,0,1-3.87-.85,6.24,6.24,0,0,1-2.59-2.36,6.49,6.49,0,0,1-.91-3.43,6.57,6.57,0,0,1,.9-3.42,6.28,6.28,0,0,1,2.47-2.38,7.69,7.69,0,0,1,6.95,0,6.09,6.09,0,0,1,2.41,2.34,7,7,0,0,1,.88,3.54C205.74,701.83,205.71,702.17,205.66,702.79Zm-8.76-4.15a3.1,3.1,0,0,0-1.05,2h6.36a3.1,3.1,0,0,0-1.06-2,3.13,3.13,0,0,0-2.11-.73A3.24,3.24,0,0,0,196.9,698.64Z" transform="translate(0 0)"/><path d="M219.14,695.92a6,6,0,0,1,2.32,2.32,7.69,7.69,0,0,1,0,7,6,6,0,0,1-2.32,2.33,6.6,6.6,0,0,1-3.28.82,5,5,0,0,1-3.88-1.56v6h-3.75V695.28h3.58v1.49a5,5,0,0,1,4.05-1.68A6.5,6.5,0,0,1,219.14,695.92Zm-1.56,8.42a4.15,4.15,0,0,0,0-5.21,3.37,3.37,0,0,0-4.73,0,4.15,4.15,0,0,0,0,5.21,3.37,3.37,0,0,0,4.73,0Z" transform="translate(0 0)"/><path d="M237.37,702.79H227.6a3.07,3.07,0,0,0,1.25,1.9,4.14,4.14,0,0,0,2.45.69,4.92,4.92,0,0,0,1.78-.3,4.39,4.39,0,0,0,1.46-.94l2,2.16a6.7,6.7,0,0,1-5.33,2.08,8.37,8.37,0,0,1-3.86-.85,6.27,6.27,0,0,1-2.6-2.36,6.93,6.93,0,0,1,0-6.85,6.35,6.35,0,0,1,2.47-2.38,7.69,7.69,0,0,1,7,0,6,6,0,0,1,2.41,2.34,6.94,6.94,0,0,1,.88,3.54C237.44,701.83,237.42,702.17,237.37,702.79Zm-8.76-4.15a3.07,3.07,0,0,0-1.06,2h6.36a3.06,3.06,0,0,0-3.17-2.69A3.21,3.21,0,0,0,228.61,698.64Z" transform="translate(0 0)"/><path d="M249.75,696.52a5.45,5.45,0,0,1,1.61,4.3v7.37h-3.51v-1.61q-1,1.8-3.93,1.8a6.06,6.06,0,0,1-2.58-.5,3.91,3.91,0,0,1-1.67-1.39,3.66,3.66,0,0,1-.57-2,3.37,3.37,0,0,1,1.35-2.83,6.89,6.89,0,0,1,4.19-1h3a2.38,2.38,0,0,0-.75-1.89,3.26,3.26,0,0,0-2.23-.66,6.39,6.39,0,0,0-2,.33,5.39,5.39,0,0,0-1.69.87l-1.34-2.61a7.86,7.86,0,0,1,2.53-1.15,11,11,0,0,1,3-.41A6.68,6.68,0,0,1,249.75,696.52Zm-3.19,8.9a2.48,2.48,0,0,0,1.06-1.31v-1.32h-2.57c-1.54,0-2.31.51-2.31,1.51a1.34,1.34,0,0,0,.57,1.14,2.51,2.51,0,0,0,1.54.42A3.25,3.25,0,0,0,246.56,705.42Z" transform="translate(0 0)"/><path d="M263,707.57a4,4,0,0,1-1.35.61,6.77,6.77,0,0,1-1.7.2,5,5,0,0,1-3.56-1.17,4.52,4.52,0,0,1-1.26-3.46v-5.3h-2v-2.88h2v-3.15h3.74v3.15H262v2.88h-3.22v5.25a1.74,1.74,0,0,0,.42,1.26,1.55,1.55,0,0,0,1.19.45,2.39,2.39,0,0,0,1.51-.48Z" transform="translate(0 0)"/><path d="M335.11,679.93a9.15,9.15,0,0,1-3-1.4l1.32-2.93a8.94,8.94,0,0,0,2.57,1.27,9.61,9.61,0,0,0,3,.48,4.73,4.73,0,0,0,2.45-.49,1.48,1.48,0,0,0,.79-1.31,1.23,1.23,0,0,0-.46-1,3.6,3.6,0,0,0-1.2-.64c-.49-.16-1.15-.34-2-.53a27.81,27.81,0,0,1-3.15-.91,5.16,5.16,0,0,1-2.1-1.46,4,4,0,0,1-.87-2.69,4.64,4.64,0,0,1,.79-2.65,5.31,5.31,0,0,1,2.39-1.89,9.79,9.79,0,0,1,3.9-.69,12.67,12.67,0,0,1,3.14.38,9.48,9.48,0,0,1,2.69,1.1l-1.2,3a9.38,9.38,0,0,0-4.66-1.32,4.38,4.38,0,0,0-2.41.52,1.63,1.63,0,0,0-.78,1.4,1.36,1.36,0,0,0,.9,1.28,14,14,0,0,0,2.75.83,27,27,0,0,1,3.14.91,5.08,5.08,0,0,1,2.1,1.44,3.83,3.83,0,0,1,.88,2.66,4.57,4.57,0,0,1-.81,2.63,5.44,5.44,0,0,1-2.41,1.89,9.88,9.88,0,0,1-3.91.69A13.72,13.72,0,0,1,335.11,679.93Z" transform="translate(0 0)"/><path d="M359.4,667.91a6,6,0,0,1,2.31,2.33,7.67,7.67,0,0,1,0,7,6,6,0,0,1-2.31,2.33,6.63,6.63,0,0,1-3.28.83,5,5,0,0,1-3.89-1.56v6h-3.74V667.27h3.57v1.49a5,5,0,0,1,4.06-1.68A6.63,6.63,0,0,1,359.4,667.91Zm-1.56,8.42a4.15,4.15,0,0,0,0-5.21,3.17,3.17,0,0,0-2.37-1,3.13,3.13,0,0,0-2.36,1,4.11,4.11,0,0,0,0,5.21,3.09,3.09,0,0,0,2.36,1A3.13,3.13,0,0,0,357.84,676.33Z" transform="translate(0 0)"/><path d="M377.62,674.78h-9.76a3,3,0,0,0,1.24,1.9,4.19,4.19,0,0,0,2.45.7,5,5,0,0,0,1.79-.3,4.38,4.38,0,0,0,1.45-1l2,2.16a6.68,6.68,0,0,1-5.32,2.09,8.42,8.42,0,0,1-3.87-.86,6.18,6.18,0,0,1-2.59-2.36,6.49,6.49,0,0,1-.91-3.43,6.57,6.57,0,0,1,.9-3.42,6.28,6.28,0,0,1,2.47-2.38,7.24,7.24,0,0,1,3.52-.85,7.15,7.15,0,0,1,3.43.82,5.9,5.9,0,0,1,2.41,2.34,7,7,0,0,1,.88,3.54S377.67,674.16,377.62,674.78Zm-8.76-4.15a3.1,3.1,0,0,0-1.05,2h6.36a3.1,3.1,0,0,0-1.06-2,3.18,3.18,0,0,0-2.11-.73A3.24,3.24,0,0,0,368.86,670.63Z" transform="translate(0 0)"/><path d="M392.77,674.78H383a3,3,0,0,0,1.25,1.9,4.15,4.15,0,0,0,2.45.7,4.92,4.92,0,0,0,1.78-.3,4.42,4.42,0,0,0,1.46-1l2,2.16a6.71,6.71,0,0,1-5.33,2.09,8.38,8.38,0,0,1-3.86-.86,6.21,6.21,0,0,1-2.6-2.36,6.93,6.93,0,0,1,0-6.85,6.35,6.35,0,0,1,2.47-2.38,7.24,7.24,0,0,1,3.52-.85,7.13,7.13,0,0,1,3.43.82,5.84,5.84,0,0,1,2.41,2.34,6.89,6.89,0,0,1,.88,3.54S392.82,674.16,392.77,674.78ZM384,670.63a3.07,3.07,0,0,0-1.06,2h6.36a3.13,3.13,0,0,0-1.05-2,3.48,3.48,0,0,0-4.25,0Z" transform="translate(0 0)"/><path d="M408.49,662.38v17.8h-3.58V678.7a4.94,4.94,0,0,1-4,1.68,6.73,6.73,0,0,1-3.3-.82,5.84,5.84,0,0,1-2.32-2.33,7.73,7.73,0,0,1,0-7,5.88,5.88,0,0,1,2.32-2.32,6.62,6.62,0,0,1,3.3-.82,4.89,4.89,0,0,1,3.86,1.56v-6.26Zm-4.61,14a4.08,4.08,0,0,0,0-5.21,3.15,3.15,0,0,0-2.35-1,3.2,3.2,0,0,0-2.38,1,4.11,4.11,0,0,0,0,5.21,3.17,3.17,0,0,0,2.38,1A3.12,3.12,0,0,0,403.88,676.33Z" transform="translate(0 0)"/><path d="M365.19,695.28v12.91h-3.55v-1.53a5,5,0,0,1-1.78,1.28,6.14,6.14,0,0,1-6.26-1,5.84,5.84,0,0,1-1.49-4.34v-7.3h3.75V702q0,3.12,2.61,3.12a2.81,2.81,0,0,0,2.16-.87,3.68,3.68,0,0,0,.82-2.61v-6.38Z" transform="translate(0 0)"/><path d="M379.58,695.92a6,6,0,0,1,2.32,2.32,7.69,7.69,0,0,1,0,7,6,6,0,0,1-2.32,2.33,6.6,6.6,0,0,1-3.28.82,5,5,0,0,1-3.88-1.56v6h-3.75V695.28h3.58v1.49a5,5,0,0,1,4.05-1.68A6.5,6.5,0,0,1,379.58,695.92ZM378,704.34a4.15,4.15,0,0,0,0-5.21,3.37,3.37,0,0,0-4.73,0,4.15,4.15,0,0,0,0,5.21,3.37,3.37,0,0,0,4.73,0Z" transform="translate(0 0)"/><path d="M385.34,707.75a2.08,2.08,0,0,1-.66-1.55,2,2,0,0,1,.65-1.52,2.52,2.52,0,0,1,3.31,0,2,2,0,0,1,.65,1.52,2.08,2.08,0,0,1-.66,1.55,2.46,2.46,0,0,1-3.29,0Zm-.59-16.36h4.47l-.75,11h-3Z" transform="translate(0 0)"/><path d="M492.74,679.93a9.15,9.15,0,0,1-3-1.4l1.32-2.93a8.94,8.94,0,0,0,2.57,1.27,9.62,9.62,0,0,0,3,.48,4.69,4.69,0,0,0,2.44-.49,1.49,1.49,0,0,0,.8-1.31,1.24,1.24,0,0,0-.47-1,3.41,3.41,0,0,0-1.2-.64c-.49-.16-1.15-.34-2-.53a27.81,27.81,0,0,1-3.15-.91A5.16,5.16,0,0,1,491,671a4,4,0,0,1-.87-2.69,4.64,4.64,0,0,1,.79-2.65,5.31,5.31,0,0,1,2.39-1.89,9.79,9.79,0,0,1,3.9-.69,12.67,12.67,0,0,1,3.14.38,9.36,9.36,0,0,1,2.69,1.1l-1.2,3a9.35,9.35,0,0,0-4.66-1.32,4.4,4.4,0,0,0-2.41.52,1.63,1.63,0,0,0-.78,1.4,1.36,1.36,0,0,0,.9,1.28,14,14,0,0,0,2.75.83,27,27,0,0,1,3.14.91,5.08,5.08,0,0,1,2.1,1.44,3.83,3.83,0,0,1,.88,2.66,4.63,4.63,0,0,1-.8,2.63,5.47,5.47,0,0,1-2.42,1.89,9.88,9.88,0,0,1-3.91.69A13.72,13.72,0,0,1,492.74,679.93Z" transform="translate(0 0)"/><path d="M506.12,662.38h3.74v17.8h-3.74Z" transform="translate(0 0)"/><path d="M515.83,679.52a6.29,6.29,0,0,1-2.54-2.36,6.92,6.92,0,0,1,0-6.86,6.38,6.38,0,0,1,2.54-2.37,7.72,7.72,0,0,1,3.66-.85,7.61,7.61,0,0,1,3.64.85,6.36,6.36,0,0,1,2.53,2.37,6.92,6.92,0,0,1,0,6.86,6.26,6.26,0,0,1-2.53,2.36,7.61,7.61,0,0,1-3.64.86A7.72,7.72,0,0,1,515.83,679.52Zm6-3.19a4.11,4.11,0,0,0,0-5.21,3.13,3.13,0,0,0-2.36-1,3.2,3.2,0,0,0-2.38,1,4.08,4.08,0,0,0,0,5.21,3.17,3.17,0,0,0,2.38,1A3.09,3.09,0,0,0,521.85,676.33Z" transform="translate(0 0)"/><path d="M549.58,667.27l-4.68,12.91h-3.6l-2.9-8-3,8h-3.6l-4.66-12.91h3.53l3.05,8.74,3.17-8.74h3.16l3.08,8.74,3.14-8.74Z" transform="translate(0 0)"/><path d="M495.68,690.38v17.81H492.1V706.7a4.92,4.92,0,0,1-4,1.68,6.78,6.78,0,0,1-3.3-.81,5.88,5.88,0,0,1-2.31-2.33,7.73,7.73,0,0,1,0-7,5.88,5.88,0,0,1,2.31-2.33,6.78,6.78,0,0,1,3.3-.81,4.92,4.92,0,0,1,3.87,1.56v-6.27Zm-4.61,14a4.08,4.08,0,0,0,0-5.21,3.12,3.12,0,0,0-2.35-1,3.17,3.17,0,0,0-2.38,1,4.11,4.11,0,0,0,0,5.21,3.17,3.17,0,0,0,2.38,1A3.12,3.12,0,0,0,491.07,704.34Z" transform="translate(0 0)"/><path d="M501.62,707.53a6.33,6.33,0,0,1-2.53-2.36,6.87,6.87,0,0,1,0-6.87,6.4,6.4,0,0,1,2.53-2.36,8.28,8.28,0,0,1,7.31,0,6.44,6.44,0,0,1,2.52,2.36,6.94,6.94,0,0,1,0,6.87,6.37,6.37,0,0,1-2.52,2.36,8.28,8.28,0,0,1-7.31,0Zm6-3.19a4.11,4.11,0,0,0,0-5.21,3.09,3.09,0,0,0-2.36-1,3.17,3.17,0,0,0-2.38,1,4.11,4.11,0,0,0,0,5.21,3.17,3.17,0,0,0,2.38,1A3.09,3.09,0,0,0,507.64,704.34Z" transform="translate(0 0)"/><path d="M535.38,695.28l-4.68,12.91h-3.61l-2.9-8-3,8h-3.6l-4.65-12.91h3.52l3,8.74,3.17-8.74h3.17l3.07,8.74,3.14-8.74Z" transform="translate(0 0)"/><path d="M548.85,696.53a5.72,5.72,0,0,1,1.48,4.27v7.39h-3.75v-6.81a3.38,3.38,0,0,0-.67-2.3,2.47,2.47,0,0,0-1.94-.75,3,3,0,0,0-2.26.87,3.66,3.66,0,0,0-.84,2.61v6.38h-3.74V695.28h3.57v1.51a5.15,5.15,0,0,1,1.85-1.26,6.6,6.6,0,0,1,2.43-.44A5.29,5.29,0,0,1,548.85,696.53Z" transform="translate(0 0)"/><path d="M553.82,707.75a2.08,2.08,0,0,1-.66-1.55,2,2,0,0,1,.65-1.52,2.52,2.52,0,0,1,3.31,0,2,2,0,0,1,.65,1.52,2.08,2.08,0,0,1-.66,1.55,2.46,2.46,0,0,1-3.29,0Zm-.59-16.36h4.47l-.75,11h-3Z" transform="translate(0 0)"/><path d="M316.1,469.48a9,9,0,0,1-3-1.41l1.32-2.93a9,9,0,0,0,2.57,1.28,9.62,9.62,0,0,0,3,.48,4.68,4.68,0,0,0,2.44-.5,1.47,1.47,0,0,0,.8-1.3,1.26,1.26,0,0,0-.47-1,3.58,3.58,0,0,0-1.2-.64c-.49-.16-1.15-.33-2-.52a27.58,27.58,0,0,1-3.15-.92,5.16,5.16,0,0,1-2.1-1.46,4,4,0,0,1-.87-2.69,4.66,4.66,0,0,1,.79-2.65,5.29,5.29,0,0,1,2.39-1.88,9.61,9.61,0,0,1,3.9-.7,13.17,13.17,0,0,1,3.14.38,9.37,9.37,0,0,1,2.69,1.11l-1.2,2.95a9.35,9.35,0,0,0-4.66-1.32,4.39,4.39,0,0,0-2.41.53,1.6,1.6,0,0,0-.78,1.39,1.35,1.35,0,0,0,.9,1.28,14,14,0,0,0,2.75.83,29.09,29.09,0,0,1,3.14.91,5.27,5.27,0,0,1,2.1,1.44,3.86,3.86,0,0,1,.88,2.67,4.65,4.65,0,0,1-.8,2.63,5.38,5.38,0,0,1-2.42,1.88,9.87,9.87,0,0,1-3.91.7A13.72,13.72,0,0,1,316.1,469.48Z" transform="translate(0 0)"/><path d="M331.87,469.07a6.38,6.38,0,0,1-2.54-2.37,6.92,6.92,0,0,1,0-6.86,6.29,6.29,0,0,1,2.54-2.36,7.72,7.72,0,0,1,3.66-.86,7.61,7.61,0,0,1,3.64.86,6.26,6.26,0,0,1,2.53,2.36,6.92,6.92,0,0,1,0,6.86,6.36,6.36,0,0,1-2.53,2.37,7.61,7.61,0,0,1-3.64.85A7.72,7.72,0,0,1,331.87,469.07Zm6-3.19a4.11,4.11,0,0,0,0-5.21,3.09,3.09,0,0,0-2.36-1,3.17,3.17,0,0,0-2.38,1,4.08,4.08,0,0,0,0,5.21,3.2,3.2,0,0,0,2.38,1A3.13,3.13,0,0,0,337.89,465.88Z" transform="translate(0 0)"/><path d="M365.49,458.05a5.83,5.83,0,0,1,1.43,4.29v7.39h-3.75v-6.82a3.52,3.52,0,0,0-.63-2.29,2.25,2.25,0,0,0-1.81-.76,2.67,2.67,0,0,0-2.09.86,3.66,3.66,0,0,0-.77,2.53v6.48h-3.74v-6.82c0-2-.82-3.05-2.45-3.05a2.63,2.63,0,0,0-2.06.86,3.61,3.61,0,0,0-.77,2.53v6.48H345.1V456.82h3.58v1.48a4.7,4.7,0,0,1,1.76-1.24,5.93,5.93,0,0,1,2.3-.44,5.56,5.56,0,0,1,2.47.54,4.35,4.35,0,0,1,1.77,1.58,5.16,5.16,0,0,1,2-1.56,6.26,6.26,0,0,1,2.65-.56A5.22,5.22,0,0,1,365.49,458.05Z" transform="translate(0 0)"/><path d="M382.85,464.33h-9.76a3,3,0,0,0,1.24,1.89,4.12,4.12,0,0,0,2.45.7,4.94,4.94,0,0,0,1.79-.3,4.38,4.38,0,0,0,1.45-.95l2,2.16a6.68,6.68,0,0,1-5.32,2.09,8.42,8.42,0,0,1-3.87-.85,6.27,6.27,0,0,1-2.59-2.37,6.47,6.47,0,0,1-.91-3.43,6.62,6.62,0,0,1,.9-3.42,6.26,6.26,0,0,1,2.47-2.37,7.61,7.61,0,0,1,6.95,0,5.9,5.9,0,0,1,2.41,2.34,7,7,0,0,1,.88,3.54C382.93,463.37,382.9,463.7,382.85,464.33Zm-8.76-4.15a3.08,3.08,0,0,0-1,2h6.36a3.1,3.1,0,0,0-1.06-1.95,3.13,3.13,0,0,0-2.11-.73A3.24,3.24,0,0,0,374.09,460.18Z" transform="translate(0 0)"/><path d="M387.91,469.07a6.29,6.29,0,0,1-2.53-2.37,6.85,6.85,0,0,1,0-6.86,6.2,6.2,0,0,1,2.53-2.36,7.72,7.72,0,0,1,3.66-.86,7.61,7.61,0,0,1,3.64.86,6.26,6.26,0,0,1,2.53,2.36,6.92,6.92,0,0,1,0,6.86,6.36,6.36,0,0,1-2.53,2.37,7.61,7.61,0,0,1-3.64.85A7.72,7.72,0,0,1,387.91,469.07Zm6-3.19a4.11,4.11,0,0,0,0-5.21,3.09,3.09,0,0,0-2.36-1,3.17,3.17,0,0,0-2.38,1,4.08,4.08,0,0,0,0,5.21,3.2,3.2,0,0,0,2.38,1A3.13,3.13,0,0,0,393.93,465.88Z" transform="translate(0 0)"/><path d="M412.87,458.06a5.74,5.74,0,0,1,1.47,4.28v7.39H410.6v-6.82a3.35,3.35,0,0,0-.67-2.29,2.49,2.49,0,0,0-1.95-.76,3,3,0,0,0-2.25.88,3.61,3.61,0,0,0-.84,2.6v6.39h-3.75V456.82h3.58v1.51a4.76,4.76,0,0,1,1.85-1.26,6.32,6.32,0,0,1,2.42-.45A5.33,5.33,0,0,1,412.87,458.06Z" transform="translate(0 0)"/><path d="M430.3,464.33h-9.76a3,3,0,0,0,1.24,1.89,4.1,4.1,0,0,0,2.45.7,5,5,0,0,0,1.79-.3,4.38,4.38,0,0,0,1.45-.95l2,2.16a6.69,6.69,0,0,1-5.33,2.09,8.4,8.4,0,0,1-3.86-.85,6.27,6.27,0,0,1-2.59-2.37,6.47,6.47,0,0,1-.91-3.43,6.62,6.62,0,0,1,.9-3.42,6.26,6.26,0,0,1,2.47-2.37,7.61,7.61,0,0,1,6.95,0,5.9,5.9,0,0,1,2.41,2.34,7,7,0,0,1,.88,3.54C430.38,463.37,430.35,463.7,430.3,464.33Zm-8.76-4.15a3.08,3.08,0,0,0-1.05,2h6.36a3.1,3.1,0,0,0-1.06-1.95,3.15,3.15,0,0,0-2.11-.73A3.24,3.24,0,0,0,421.54,460.18Z" transform="translate(0 0)"/><path d="M336,486.07a5.74,5.74,0,0,1,1.48,4.27v7.4h-3.75v-6.82a3.35,3.35,0,0,0-.67-2.29,2.45,2.45,0,0,0-1.94-.76,3,3,0,0,0-2.26.88,3.61,3.61,0,0,0-.84,2.6v6.39h-3.75V479.93H328v6.24a4.86,4.86,0,0,1,1.8-1.14,6.35,6.35,0,0,1,2.3-.4A5.32,5.32,0,0,1,336,486.07Z" transform="translate(0 0)"/><path d="M350.7,486.06a5.47,5.47,0,0,1,1.6,4.31v7.37h-3.5v-1.61c-.71,1.2-2,1.8-3.94,1.8a6.06,6.06,0,0,1-2.58-.51,3.76,3.76,0,0,1-1.66-1.39,3.56,3.56,0,0,1-.58-2,3.37,3.37,0,0,1,1.36-2.84,7,7,0,0,1,4.18-1h3a2.4,2.4,0,0,0-.74-1.88,3.29,3.29,0,0,0-2.24-.66,6.66,6.66,0,0,0-2,.32,5.46,5.46,0,0,0-1.7.88l-1.34-2.62a8.19,8.19,0,0,1,2.53-1.15,11.49,11.49,0,0,1,3-.41A6.75,6.75,0,0,1,350.7,486.06Zm-3.2,8.9a2.41,2.41,0,0,0,1.06-1.3v-1.32H346c-1.53,0-2.3.5-2.3,1.51a1.36,1.36,0,0,0,.56,1.14,2.55,2.55,0,0,0,1.55.42A3.2,3.2,0,0,0,347.5,495Z" transform="translate(0 0)"/><path d="M356.89,497.53a8.09,8.09,0,0,1-2.45-1l1.25-2.69a7.61,7.61,0,0,0,2.09.9,8.75,8.75,0,0,0,2.39.35c1.59,0,2.38-.4,2.38-1.18a.83.83,0,0,0-.65-.79,9.33,9.33,0,0,0-2-.41,19.28,19.28,0,0,1-2.62-.55,4.07,4.07,0,0,1-1.78-1.11,3.1,3.1,0,0,1-.76-2.25,3.53,3.53,0,0,1,.71-2.17,4.49,4.49,0,0,1,2.06-1.48,8.92,8.92,0,0,1,3.21-.53,12.52,12.52,0,0,1,2.72.3,7.85,7.85,0,0,1,2.25.83l-1.25,2.66a7.47,7.47,0,0,0-3.72-1,3.83,3.83,0,0,0-1.8.34,1,1,0,0,0-.6.86.85.85,0,0,0,.64.84A11.19,11.19,0,0,0,361,490a23.21,23.21,0,0,1,2.59.56,3.87,3.87,0,0,1,1.75,1.1,3.06,3.06,0,0,1,.75,2.2,3.41,3.41,0,0,1-.72,2.14,4.59,4.59,0,0,1-2.1,1.45,9.25,9.25,0,0,1-3.28.52A12.23,12.23,0,0,1,356.89,497.53Z" transform="translate(0 0)"/><path d="M386.13,485.46a6,6,0,0,1,2.32,2.33,7.67,7.67,0,0,1,0,7,6,6,0,0,1-2.32,2.33,6.61,6.61,0,0,1-3.28.83,5,5,0,0,1-4.05-1.68v1.49h-3.58V479.93H379v6.26a5,5,0,0,1,3.88-1.56A6.61,6.61,0,0,1,386.13,485.46Zm-1.56,8.42a4.13,4.13,0,0,0,0-5.2,3.34,3.34,0,0,0-4.73,0,4.13,4.13,0,0,0,0,5.2,3.34,3.34,0,0,0,4.73,0Z" transform="translate(0 0)"/><path d="M397.33,492.67l-1.8,1.78v3.29h-3.75V479.93h3.75V490l5.47-5.19h4.46l-5.37,5.48,5.85,7.44h-4.53Z" transform="translate(0 0)"/><path d="M420.94,484.82v10.76c0,2.36-.61,4.12-1.85,5.28a7.63,7.63,0,0,1-5.4,1.72,13.7,13.7,0,0,1-3.55-.45,7.9,7.9,0,0,1-2.78-1.32l1.49-2.69a6.16,6.16,0,0,0,2.06,1.07,8.31,8.31,0,0,0,2.5.39,4,4,0,0,0,2.86-.87,3.49,3.49,0,0,0,.93-2.65v-.56a5.22,5.22,0,0,1-4.08,1.61,6.82,6.82,0,0,1-3.25-.78,5.88,5.88,0,0,1-2.34-2.19,6.56,6.56,0,0,1,0-6.53,5.83,5.83,0,0,1,2.34-2.2,6.82,6.82,0,0,1,3.25-.78,5.14,5.14,0,0,1,4.27,1.85v-1.66Zm-4.64,8.34a3.24,3.24,0,0,0,0-4.58,3.48,3.48,0,0,0-2.44-.88,3.52,3.52,0,0,0-2.45.88,3.21,3.21,0,0,0,0,4.58,3.48,3.48,0,0,0,2.45.88A3.43,3.43,0,0,0,416.3,493.16Z" transform="translate(0 0)"/><path d="M344.38,508.94v16.8h-3.19l-8.37-10.2v10.2H329v-16.8h3.21l8.35,10.2v-10.2Z" transform="translate(0 0)"/><path d="M351.79,524.9a8.33,8.33,0,0,1-3.29-3.1,8.93,8.93,0,0,1,0-8.91,8.43,8.43,0,0,1,3.29-3.11,10.46,10.46,0,0,1,9.42,0,8.63,8.63,0,0,1,3.29,3.11,8.55,8.55,0,0,1-3.29,12,10.38,10.38,0,0,1-9.42,0Zm7.4-2.86a5,5,0,0,0,1.89-1.91,6,6,0,0,0,0-5.57,5,5,0,0,0-1.89-1.91,5.64,5.64,0,0,0-5.37,0,4.89,4.89,0,0,0-1.89,1.91,6,6,0,0,0,0,5.57,5,5,0,0,0,1.89,1.91,5.64,5.64,0,0,0,5.37,0Z" transform="translate(0 0)"/><path d="M368.62,508.94h3.89v16.8h-3.89Z" transform="translate(0 0)"/><path d="M378.16,525.49a9.25,9.25,0,0,1-3-1.4l1.33-2.93a8.75,8.75,0,0,0,2.56,1.27,9.67,9.67,0,0,0,3,.48,4.76,4.76,0,0,0,2.45-.49,1.5,1.5,0,0,0,.79-1.31,1.24,1.24,0,0,0-.47-1,3.41,3.41,0,0,0-1.2-.64c-.49-.16-1.15-.34-2-.53a27,27,0,0,1-3.14-.91,5,5,0,0,1-2.1-1.46,3.94,3.94,0,0,1-.88-2.69,4.72,4.72,0,0,1,.79-2.65,5.36,5.36,0,0,1,2.39-1.89,9.79,9.79,0,0,1,3.9-.69,12.81,12.81,0,0,1,3.15.38,9.3,9.3,0,0,1,2.68,1.1l-1.2,3a9.35,9.35,0,0,0-4.65-1.32,4.36,4.36,0,0,0-2.41.52,1.61,1.61,0,0,0-.78,1.4,1.35,1.35,0,0,0,.9,1.28,13.9,13.9,0,0,0,2.74.83,27.81,27.81,0,0,1,3.15.91,5.21,5.21,0,0,1,2.1,1.44,3.87,3.87,0,0,1,.87,2.66,4.56,4.56,0,0,1-.8,2.63,5.5,5.5,0,0,1-2.41,1.89A10,10,0,0,1,382,526,13.77,13.77,0,0,1,378.16,525.49Z" transform="translate(0 0)"/><path d="M404.81,522.62v3.12h-13v-16.8H404.5v3.12h-8.83v3.65h7.8v3h-7.8v3.88Z" transform="translate(0 0)"/><path d="M407.75,525.3a2.06,2.06,0,0,1-.66-1.55,2,2,0,0,1,.65-1.52,2.31,2.31,0,0,1,1.66-.61,2.29,2.29,0,0,1,1.65.61,2,2,0,0,1,.65,1.52,2.06,2.06,0,0,1-.66,1.55,2.43,2.43,0,0,1-3.29,0Zm-.58-16.36h4.46l-.74,11h-3Z" transform="translate(0 0)"/><path d="M514.06,462.54a4.17,4.17,0,0,1,.82,2.63,3.86,3.86,0,0,1-1.72,3.39,8.77,8.77,0,0,1-5,1.19h-8.69V453h8.21a8,8,0,0,1,4.72,1.18,3.72,3.72,0,0,1,1.64,3.19,4.09,4.09,0,0,1-.59,2.18,4.15,4.15,0,0,1-1.64,1.52A4.38,4.38,0,0,1,514.06,462.54Zm-10.72-6.66v4h3.86a3.93,3.93,0,0,0,2.18-.5,1.69,1.69,0,0,0,.75-1.49,1.65,1.65,0,0,0-.75-1.48,3.93,3.93,0,0,0-2.18-.49Zm6.85,10.44a1.73,1.73,0,0,0,.78-1.56c0-1.39-1-2.09-3.1-2.09h-4.53v4.15h4.53A4.28,4.28,0,0,0,510.19,466.32Z" transform="translate(0 0)"/><path d="M527.38,458.08a5.42,5.42,0,0,1,1.61,4.3v7.37h-3.5v-1.61c-.71,1.2-2,1.8-3.94,1.8a6.06,6.06,0,0,1-2.58-.5,3.91,3.91,0,0,1-1.67-1.39,3.66,3.66,0,0,1-.57-2,3.37,3.37,0,0,1,1.35-2.83,6.91,6.91,0,0,1,4.19-1h3a2.38,2.38,0,0,0-.75-1.89,3.26,3.26,0,0,0-2.23-.66,6.44,6.44,0,0,0-2,.33,5.5,5.5,0,0,0-1.69.87l-1.34-2.61a8,8,0,0,1,2.53-1.15,11,11,0,0,1,3-.41A6.66,6.66,0,0,1,527.38,458.08Zm-3.19,8.9a2.43,2.43,0,0,0,1.06-1.31v-1.32h-2.57c-1.54,0-2.3.5-2.3,1.51a1.33,1.33,0,0,0,.56,1.14,2.55,2.55,0,0,0,1.55.42A3.19,3.19,0,0,0,524.19,467Z" transform="translate(0 0)"/><path d="M545.53,451.94v17.81H542v-1.49a4.94,4.94,0,0,1-4,1.68,6.72,6.72,0,0,1-3.3-.81,5.91,5.91,0,0,1-2.32-2.33,7.73,7.73,0,0,1,0-7,5.91,5.91,0,0,1,2.32-2.33,6.72,6.72,0,0,1,3.3-.81,4.89,4.89,0,0,1,3.86,1.56v-6.27Zm-4.61,14a4.08,4.08,0,0,0,0-5.21,3.12,3.12,0,0,0-2.35-1,3.17,3.17,0,0,0-2.38,1,4.11,4.11,0,0,0,0,5.21,3.17,3.17,0,0,0,2.38,1A3.12,3.12,0,0,0,540.92,465.9Z" transform="translate(0 0)"/><path d="M460.82,497.1a6.4,6.4,0,0,1-2.57-2.37,6.85,6.85,0,0,1,0-6.86,6.38,6.38,0,0,1,2.57-2.36,7.92,7.92,0,0,1,3.71-.85,7.13,7.13,0,0,1,3.56.85,5,5,0,0,1,2.22,2.43l-2.9,1.56a3.18,3.18,0,0,0-2.91-1.77,3.29,3.29,0,0,0-2.42,1,4,4,0,0,0,0,5.23,3.29,3.29,0,0,0,2.42,1,3.15,3.15,0,0,0,2.91-1.78l2.9,1.59a5.15,5.15,0,0,1-2.22,2.4,7.13,7.13,0,0,1-3.56.86A7.92,7.92,0,0,1,460.82,497.1Z" transform="translate(0 0)"/><path d="M473.8,497.1a6.36,6.36,0,0,1-2.53-2.37,6.92,6.92,0,0,1,0-6.86,6.33,6.33,0,0,1,2.53-2.36,8.28,8.28,0,0,1,7.31,0,6.37,6.37,0,0,1,2.52,2.36,6.92,6.92,0,0,1,0,6.86,6.39,6.39,0,0,1-2.52,2.37,8.28,8.28,0,0,1-7.31,0Zm6-3.19a4.15,4.15,0,0,0,0-5.21,3.38,3.38,0,0,0-4.74,0,4.08,4.08,0,0,0,0,5.21,3.38,3.38,0,0,0,4.74,0Z" transform="translate(0 0)"/><path d="M497.83,486.1a5.72,5.72,0,0,1,1.47,4.27v7.39h-3.74v-6.82a3.42,3.42,0,0,0-.67-2.29,2.49,2.49,0,0,0-1.95-.76,3,3,0,0,0-2.25.88,3.64,3.64,0,0,0-.84,2.61v6.38H486.1V484.85h3.58v1.51a5,5,0,0,1,1.85-1.26,6.32,6.32,0,0,1,2.42-.44A5.33,5.33,0,0,1,497.83,486.1Z" transform="translate(0 0)"/><path d="M513.48,486.1a5.72,5.72,0,0,1,1.47,4.27v7.39h-3.74v-6.82a3.42,3.42,0,0,0-.67-2.29,2.49,2.49,0,0,0-2-.76,3,3,0,0,0-2.26.88,3.68,3.68,0,0,0-.83,2.61v6.38h-3.75V484.85h3.58v1.51a5,5,0,0,1,1.85-1.26,6.32,6.32,0,0,1,2.42-.44A5.33,5.33,0,0,1,513.48,486.1Z" transform="translate(0 0)"/><path d="M530,492.36h-9.76a3,3,0,0,0,1.25,1.9,4.13,4.13,0,0,0,2.44.69,4.94,4.94,0,0,0,1.79-.3,4.23,4.23,0,0,0,1.45-.95l2,2.16a6.65,6.65,0,0,1-5.32,2.09,8.42,8.42,0,0,1-3.87-.85,6.27,6.27,0,0,1-2.59-2.37,6.47,6.47,0,0,1-.91-3.43,6.62,6.62,0,0,1,.9-3.42,6.33,6.33,0,0,1,2.47-2.37,7.69,7.69,0,0,1,7,0,6,6,0,0,1,2.41,2.34,7,7,0,0,1,.88,3.54S530,491.73,530,492.36Zm-8.76-4.15a3.08,3.08,0,0,0-1.05,2h6.36a3.1,3.1,0,0,0-1.06-2,3.13,3.13,0,0,0-2.11-.73A3.24,3.24,0,0,0,521.21,488.21Z" transform="translate(0 0)"/><path d="M534.11,497.1a6.51,6.51,0,0,1,0-11.59,8,8,0,0,1,3.71-.85,7.2,7.2,0,0,1,3.57.85,5.13,5.13,0,0,1,2.22,2.43l-2.91,1.56a3.17,3.17,0,0,0-2.9-1.77,3.29,3.29,0,0,0-2.43,1,4,4,0,0,0,0,5.23,3.29,3.29,0,0,0,2.43,1,3.12,3.12,0,0,0,2.9-1.78l2.91,1.59a5.25,5.25,0,0,1-2.22,2.4,7.2,7.2,0,0,1-3.57.86A8,8,0,0,1,534.11,497.1Z" transform="translate(0 0)"/><path d="M553.16,497.14a4,4,0,0,1-1.36.61,7.11,7.11,0,0,1-1.69.2,5,5,0,0,1-3.56-1.18,4.48,4.48,0,0,1-1.26-3.45V488h-2v-2.88h2V482H549v3.15h3.22V488H549v5.25a1.76,1.76,0,0,0,.42,1.26,1.55,1.55,0,0,0,1.19.44,2.41,2.41,0,0,0,1.51-.47Z" transform="translate(0 0)"/><path d="M554.53,482.45a2,2,0,0,1,0-3,2.37,2.37,0,0,1,1.68-.6,2.44,2.44,0,0,1,1.68.58,1.83,1.83,0,0,1,.64,1.44,2,2,0,0,1-.64,1.54,2.62,2.62,0,0,1-3.36,0Zm-.2,2.4h3.75v12.91h-3.75Z" transform="translate(0 0)"/><path d="M563.11,497.1a6.38,6.38,0,0,1-2.54-2.37,6.92,6.92,0,0,1,0-6.86,6.36,6.36,0,0,1,2.54-2.36,7.72,7.72,0,0,1,3.66-.85,7.61,7.61,0,0,1,3.64.85,6.24,6.24,0,0,1,2.52,2.36,6.85,6.85,0,0,1,0,6.86,6.26,6.26,0,0,1-2.52,2.37,7.61,7.61,0,0,1-3.64.85A7.72,7.72,0,0,1,563.11,497.1Zm6-3.19a4.15,4.15,0,0,0,0-5.21,3.11,3.11,0,0,0-2.36-1,3.15,3.15,0,0,0-2.38,1,4.08,4.08,0,0,0,0,5.21,3.15,3.15,0,0,0,2.38,1A3.11,3.11,0,0,0,569.13,493.91Z" transform="translate(0 0)"/><path d="M587.13,486.1a5.72,5.72,0,0,1,1.48,4.27v7.39h-3.75v-6.82a3.37,3.37,0,0,0-.67-2.29,2.49,2.49,0,0,0-1.94-.76,3,3,0,0,0-2.26.88,3.64,3.64,0,0,0-.84,2.61v6.38h-3.74V484.85H579v1.51a5.07,5.07,0,0,1,1.85-1.26,6.39,6.39,0,0,1,2.42-.44A5.32,5.32,0,0,1,587.13,486.1Z" transform="translate(0 0)"/><path d="M26.82,453H30.7v13.63h8.43v3.17H26.82Z" transform="translate(0 0)"/><path d="M53.62,464.35H43.86a3.06,3.06,0,0,0,1.24,1.9,4.19,4.19,0,0,0,2.45.69,5,5,0,0,0,1.79-.3,4.35,4.35,0,0,0,1.45-.94l2,2.15a6.65,6.65,0,0,1-5.32,2.09,8.42,8.42,0,0,1-3.87-.85A6.24,6.24,0,0,1,41,466.73a6.49,6.49,0,0,1-.91-3.43,6.57,6.57,0,0,1,.9-3.42,6.28,6.28,0,0,1,2.47-2.38,7.69,7.69,0,0,1,6.95,0,6.09,6.09,0,0,1,2.41,2.34,7,7,0,0,1,.88,3.54C53.7,463.39,53.67,463.73,53.62,464.35Zm-8.76-4.15a3.1,3.1,0,0,0-1,2h6.36a3.1,3.1,0,0,0-1.06-2,3.13,3.13,0,0,0-2.11-.73A3.24,3.24,0,0,0,44.86,460.2Z" transform="translate(0 0)"/><path d="M66,458.08a5.45,5.45,0,0,1,1.61,4.3v7.37H64.11v-1.61q-1.05,1.8-3.93,1.8a6,6,0,0,1-2.58-.5,3.86,3.86,0,0,1-1.67-1.39,3.59,3.59,0,0,1-.58-2,3.35,3.35,0,0,1,1.36-2.83,6.89,6.89,0,0,1,4.19-1h3a2.41,2.41,0,0,0-.74-1.89,3.28,3.28,0,0,0-2.23-.66,6.39,6.39,0,0,0-2,.33,5.28,5.28,0,0,0-1.69.87l-1.35-2.61a8.06,8.06,0,0,1,2.53-1.15,11.09,11.09,0,0,1,3-.41A6.68,6.68,0,0,1,66,458.08ZM62.82,467a2.46,2.46,0,0,0,1-1.31v-1.32H61.3c-1.53,0-2.3.5-2.3,1.51a1.36,1.36,0,0,0,.56,1.14,2.57,2.57,0,0,0,1.55.42A3.25,3.25,0,0,0,62.82,467Z" transform="translate(0 0)"/><path d="M83.67,456.84l-5.45,12.91H74.36l-5.42-12.91H72.8l3.58,8.78,3.69-8.78Z" transform="translate(0 0)"/><path d="M85.4,454.44a2,2,0,0,1,0-3,2.37,2.37,0,0,1,1.68-.6,2.45,2.45,0,0,1,1.68.58,1.84,1.84,0,0,1,.65,1.44,2.06,2.06,0,0,1-.65,1.55,2.33,2.33,0,0,1-1.68.61A2.37,2.37,0,0,1,85.4,454.44Zm-.19,2.4H89v12.91H85.21Z" transform="translate(0 0)"/><path d="M104.15,458.09a5.68,5.68,0,0,1,1.48,4.27v7.39h-3.74v-6.82a3.37,3.37,0,0,0-.68-2.29,2.45,2.45,0,0,0-1.94-.75,3,3,0,0,0-2.26.87,3.66,3.66,0,0,0-.84,2.61v6.38H92.43V456.84H96v1.51a5,5,0,0,1,1.84-1.26,6.6,6.6,0,0,1,2.43-.44A5.29,5.29,0,0,1,104.15,458.09Z" transform="translate(0 0)"/><path d="M122.33,456.84v10.75q0,3.56-1.84,5.28a7.67,7.67,0,0,1-5.4,1.73,13.31,13.31,0,0,1-3.56-.46,7.65,7.65,0,0,1-2.78-1.32l1.49-2.68a6.15,6.15,0,0,0,2.06,1.06,8.06,8.06,0,0,0,2.5.4,4,4,0,0,0,2.87-.88,3.49,3.49,0,0,0,.92-2.65v-.55a5.26,5.26,0,0,1-4.08,1.61,6.84,6.84,0,0,1-3.25-.78,5.83,5.83,0,0,1-2.34-2.2,6.56,6.56,0,0,1,0-6.53,5.88,5.88,0,0,1,2.34-2.19,6.84,6.84,0,0,1,3.25-.78,5.09,5.09,0,0,1,4.27,1.85v-1.66Zm-4.64,8.34a3.24,3.24,0,0,0,0-4.58,3.82,3.82,0,0,0-4.88,0,3.21,3.21,0,0,0,0,4.58,3.82,3.82,0,0,0,4.88,0Z" transform="translate(0 0)"/><path d="M50.7,486.08a5.48,5.48,0,0,1,1.6,4.31v7.37H48.8v-1.61c-.7,1.2-2,1.8-3.94,1.8a6.22,6.22,0,0,1-2.58-.5,3.88,3.88,0,0,1-1.66-1.39,3.61,3.61,0,0,1-.58-2,3.34,3.34,0,0,1,1.36-2.83,6.88,6.88,0,0,1,4.18-1h3a2.41,2.41,0,0,0-.74-1.89,3.29,3.29,0,0,0-2.24-.66,6.38,6.38,0,0,0-2,.33,5.24,5.24,0,0,0-1.7.87l-1.34-2.61a8.2,8.2,0,0,1,2.53-1.16,11.48,11.48,0,0,1,3-.4A6.75,6.75,0,0,1,50.7,486.08ZM47.5,495a2.43,2.43,0,0,0,1.06-1.31v-1.32H46c-1.53,0-2.3.5-2.3,1.51a1.36,1.36,0,0,0,.56,1.14,2.55,2.55,0,0,0,1.55.42A3.29,3.29,0,0,0,47.5,495Z" transform="translate(0 0)"/><path d="M67.41,486.1a5.68,5.68,0,0,1,1.48,4.27v7.39H65.14v-6.82a3.37,3.37,0,0,0-.67-2.29,2.47,2.47,0,0,0-1.94-.76,3,3,0,0,0-2.26.88,3.64,3.64,0,0,0-.84,2.61v6.38H55.69V484.85h3.57v1.51a5.15,5.15,0,0,1,1.85-1.26,6.41,6.41,0,0,1,2.43-.44A5.29,5.29,0,0,1,67.41,486.1Z" transform="translate(0 0)"/><path d="M85.42,480v17.81H81.85v-1.49a4.94,4.94,0,0,1-4,1.68,6.72,6.72,0,0,1-3.3-.81,5.91,5.91,0,0,1-2.32-2.33,7.73,7.73,0,0,1,0-7,5.84,5.84,0,0,1,2.32-2.33,6.72,6.72,0,0,1,3.3-.81,4.92,4.92,0,0,1,3.86,1.56V480Zm-4.6,14a4.11,4.11,0,0,0,0-5.21,3.37,3.37,0,0,0-4.73,0,4.08,4.08,0,0,0,0,5.21,3.37,3.37,0,0,0,4.73,0Z" transform="translate(0 0)"/><path d="M88.64,497.28A2.28,2.28,0,0,1,88,495.6a2.18,2.18,0,0,1,.67-1.67,2.49,2.49,0,0,1,3.31,0,2.18,2.18,0,0,1,.67,1.67,2.28,2.28,0,0,1-.67,1.68,2.38,2.38,0,0,1-3.31,0Z" transform="translate(0 0)"/><path d="M94.93,497.28a2.28,2.28,0,0,1-.68-1.68,2.18,2.18,0,0,1,.68-1.67,2.31,2.31,0,0,1,1.65-.63,2.34,2.34,0,0,1,1.66.63,2.18,2.18,0,0,1,.67,1.67,2.28,2.28,0,0,1-.67,1.68,2.25,2.25,0,0,1-1.66.67A2.22,2.22,0,0,1,94.93,497.28Z" transform="translate(0 0)"/><path d="M101.21,497.28a2.32,2.32,0,0,1-.67-1.68,2.21,2.21,0,0,1,.67-1.67,2.5,2.5,0,0,1,3.32,0,2.21,2.21,0,0,1,.67,1.67,2.32,2.32,0,0,1-.67,1.68,2.39,2.39,0,0,1-3.32,0Z" transform="translate(0 0)"/><path d="M17.79,582.38a2.25,2.25,0,0,1-.67-1.68,2.17,2.17,0,0,1,.67-1.66,2.3,2.3,0,0,1,1.66-.64,2.28,2.28,0,0,1,1.65.64,2.18,2.18,0,0,1,.68,1.66,2.34,2.34,0,0,1-4,1.68Z" transform="translate(0 0)"/><path d="M24.08,582.38a2.25,2.25,0,0,1-.67-1.68,2.17,2.17,0,0,1,.67-1.66,2.46,2.46,0,0,1,3.31,0,2.17,2.17,0,0,1,.67,1.66,2.33,2.33,0,0,1-4,1.68Z" transform="translate(0 0)"/><path d="M30.37,582.38a2.25,2.25,0,0,1-.67-1.68,2.17,2.17,0,0,1,.67-1.66A2.28,2.28,0,0,1,32,578.4a2.3,2.3,0,0,1,1.66.64,2.17,2.17,0,0,1,.67,1.66,2.33,2.33,0,0,1-4,1.68Z" transform="translate(0 0)"/><path d="M39.43,582.2a6.25,6.25,0,0,1-2.57-2.36,6.85,6.85,0,0,1,0-6.86,6.34,6.34,0,0,1,2.57-2.37,7.88,7.88,0,0,1,3.7-.85,7.2,7.2,0,0,1,3.57.85,5.11,5.11,0,0,1,2.22,2.44L46,574.61a3.19,3.19,0,0,0-2.91-1.78,3.27,3.27,0,0,0-2.42,1,4,4,0,0,0,0,5.23,3.27,3.27,0,0,0,2.42,1A3.16,3.16,0,0,0,46,578.21l2.9,1.58a5.16,5.16,0,0,1-2.22,2.4,7.1,7.1,0,0,1-3.57.87A7.89,7.89,0,0,1,39.43,582.2Z" transform="translate(0 0)"/><path d="M53.37,582.2a6.26,6.26,0,0,1-2.53-2.36,6.92,6.92,0,0,1,0-6.86,6.36,6.36,0,0,1,2.53-2.37,8.28,8.28,0,0,1,7.31,0A6.39,6.39,0,0,1,63.2,573a6.92,6.92,0,0,1,0,6.86,6.3,6.3,0,0,1-2.52,2.36,8.2,8.2,0,0,1-7.31,0Zm6-3.19a4.15,4.15,0,0,0,0-5.21,3.38,3.38,0,0,0-4.74,0,4.08,4.08,0,0,0,0,5.21,3.38,3.38,0,0,0,4.74,0Z" transform="translate(0 0)"/><path d="M87,571.19a5.82,5.82,0,0,1,1.42,4.28v7.39H84.68v-6.81a3.44,3.44,0,0,0-.64-2.29,2.22,2.22,0,0,0-1.81-.76,2.66,2.66,0,0,0-2.09.85,3.68,3.68,0,0,0-.76,2.53v6.48H75.63v-6.81c0-2-.82-3-2.45-3a2.63,2.63,0,0,0-2.06.85,3.68,3.68,0,0,0-.77,2.53v6.48H66.61V570h3.57v1.49A4.79,4.79,0,0,1,72,570.19a5.88,5.88,0,0,1,2.29-.43,5.56,5.56,0,0,1,2.47.54,4.36,4.36,0,0,1,1.78,1.57,5.32,5.32,0,0,1,2-1.56,6.29,6.29,0,0,1,2.65-.55A5.24,5.24,0,0,1,87,571.19Z" transform="translate(0 0)"/><path d="M92,567.55a2,2,0,0,1,0-3,2.4,2.4,0,0,1,1.68-.6,2.44,2.44,0,0,1,1.68.57A1.84,1.84,0,0,1,96,566a2,2,0,0,1-.65,1.55,2.33,2.33,0,0,1-1.68.61A2.4,2.4,0,0,1,92,567.55Zm-.19,2.4h3.75v12.91H91.78Z" transform="translate(0 0)"/><path d="M110.73,571.2a5.72,5.72,0,0,1,1.48,4.27v7.39h-3.75v-6.81a3.33,3.33,0,0,0-.67-2.29,2.45,2.45,0,0,0-1.94-.76,3,3,0,0,0-2.26.88,3.61,3.61,0,0,0-.84,2.6v6.38H99V570h3.57v1.51a5.07,5.07,0,0,1,1.85-1.26,6.55,6.55,0,0,1,2.42-.44A5.32,5.32,0,0,1,110.73,571.2Z" transform="translate(0 0)"/><path d="M128.91,570V580.7q0,3.56-1.85,5.28a7.59,7.59,0,0,1-5.4,1.73,13.65,13.65,0,0,1-3.55-.45,7.9,7.9,0,0,1-2.78-1.32l1.48-2.69a6.31,6.31,0,0,0,2.07,1.07,8.31,8.31,0,0,0,2.5.39,4,4,0,0,0,2.86-.87,3.5,3.5,0,0,0,.93-2.66v-.55a5.26,5.26,0,0,1-4.08,1.61,6.88,6.88,0,0,1-3.26-.78,6,6,0,0,1-2.34-2.2,6.61,6.61,0,0,1,0-6.52,6,6,0,0,1,2.34-2.2,6.88,6.88,0,0,1,3.26-.78,5.14,5.14,0,0,1,4.27,1.85V570Zm-4.64,8.34a3.26,3.26,0,0,0,0-4.58,3.84,3.84,0,0,0-4.89,0,3.21,3.21,0,0,0,0,4.58,3.84,3.84,0,0,0,4.89,0Z" transform="translate(0 0)"/><path d="M45,598.6a5.92,5.92,0,0,1,2.31,2.32,7.69,7.69,0,0,1,0,7A6,6,0,0,1,45,610.24a6.63,6.63,0,0,1-3.28.82,5,5,0,0,1-4.06-1.68v1.49H34.09V593.06h3.74v6.27a5,5,0,0,1,3.89-1.56A6.53,6.53,0,0,1,45,598.6ZM43.44,607a4.15,4.15,0,0,0,0-5.21,3.13,3.13,0,0,0-2.37-1,3.09,3.09,0,0,0-2.36,1,4.11,4.11,0,0,0,0,5.21,3.09,3.09,0,0,0,2.36,1A3.13,3.13,0,0,0,43.44,607Z" transform="translate(0 0)"/><path d="M60.46,599.2a5.42,5.42,0,0,1,1.61,4.3v7.37h-3.5v-1.61c-.71,1.2-2,1.8-3.94,1.8a6.06,6.06,0,0,1-2.58-.5,3.91,3.91,0,0,1-1.67-1.39,3.66,3.66,0,0,1-.57-2,3.37,3.37,0,0,1,1.35-2.83,6.91,6.91,0,0,1,4.19-1h3a2.38,2.38,0,0,0-.75-1.89,3.26,3.26,0,0,0-2.23-.66,6.44,6.44,0,0,0-2,.33,5.5,5.5,0,0,0-1.69.87l-1.34-2.61a8,8,0,0,1,2.53-1.15,11,11,0,0,1,3-.41A6.66,6.66,0,0,1,60.46,599.2Zm-3.19,8.9a2.43,2.43,0,0,0,1.06-1.31v-1.32H55.76c-1.54,0-2.3.5-2.3,1.51a1.33,1.33,0,0,0,.56,1.14,2.55,2.55,0,0,0,1.55.42A3.19,3.19,0,0,0,57.27,608.1Z" transform="translate(0 0)"/><path d="M68,610.21a6.31,6.31,0,0,1-2.57-2.36,6.87,6.87,0,0,1,0-6.87A6.31,6.31,0,0,1,68,598.62a7.88,7.88,0,0,1,3.7-.85,7.2,7.2,0,0,1,3.57.85,5.11,5.11,0,0,1,2.22,2.44l-2.9,1.56a3.19,3.19,0,0,0-2.91-1.78,3.27,3.27,0,0,0-2.42,1,4,4,0,0,0,0,5.23,3.27,3.27,0,0,0,2.42,1,3.16,3.16,0,0,0,2.91-1.77l2.9,1.58a5.25,5.25,0,0,1-2.22,2.4,7.09,7.09,0,0,1-3.57.86A7.88,7.88,0,0,1,68,610.21Z" transform="translate(0 0)"/><path d="M85.18,605.81l-1.8,1.77v3.29H79.64V593.06h3.74v10.08L88.85,598h4.47l-5.38,5.47,5.86,7.44H89.26Z" transform="translate(0 0)"/><path d="M102.46,595.56a2,2,0,0,1,0-3,2.37,2.37,0,0,1,1.68-.6,2.45,2.45,0,0,1,1.68.58,1.84,1.84,0,0,1,.65,1.44,2.06,2.06,0,0,1-.65,1.55,2.33,2.33,0,0,1-1.68.61A2.37,2.37,0,0,1,102.46,595.56Zm-.19,2.4H106v12.91h-3.74Z" transform="translate(0 0)"/><path d="M121.22,599.21a5.72,5.72,0,0,1,1.47,4.27v7.39H119v-6.81a3.38,3.38,0,0,0-.67-2.3,2.49,2.49,0,0,0-2-.75,3,3,0,0,0-2.25.87,3.66,3.66,0,0,0-.84,2.61v6.38h-3.75V598h3.58v1.51a5.07,5.07,0,0,1,1.85-1.26,6.51,6.51,0,0,1,2.42-.44A5.33,5.33,0,0,1,121.22,599.21Z" transform="translate(0 0)"/><path d="M195.85,42.86v6H192v-6L185.46,32h4.12l4.49,7.46L198.56,32h3.82Z" transform="translate(0 0)"/><path d="M205,48.16a6.38,6.38,0,0,1-2.54-2.37,6.92,6.92,0,0,1,0-6.86A6.38,6.38,0,0,1,205,36.56a7.84,7.84,0,0,1,3.66-.85,7.73,7.73,0,0,1,3.64.85,6.26,6.26,0,0,1,2.52,2.37,6.85,6.85,0,0,1,0,6.86,6.26,6.26,0,0,1-2.52,2.37,7.73,7.73,0,0,1-3.64.85A7.84,7.84,0,0,1,205,48.16Zm6-3.2a4.13,4.13,0,0,0,0-5.2,3.11,3.11,0,0,0-2.36-1,3.16,3.16,0,0,0-2.38,1,4.07,4.07,0,0,0,0,5.2,3.16,3.16,0,0,0,2.38,1A3.11,3.11,0,0,0,211,45Z" transform="translate(0 0)"/><path d="M231.2,35.9V48.82h-3.55V47.28a4.92,4.92,0,0,1-1.78,1.28,6.08,6.08,0,0,1-6.26-1,5.83,5.83,0,0,1-1.49-4.34V35.9h3.74v6.75c0,2.08.88,3.12,2.62,3.12a2.78,2.78,0,0,0,2.16-.88,3.7,3.7,0,0,0,.82-2.6V35.9Z" transform="translate(0 0)"/><path d="M237.78,31.45a2.25,2.25,0,0,1,.64,1.67,4,4,0,0,1-.12,1,11.54,11.54,0,0,1-.5,1.44L236.41,39H234l1-3.8a2,2,0,0,1-.93-.79,2.25,2.25,0,0,1-.34-1.27,2.22,2.22,0,0,1,.66-1.67,2.33,2.33,0,0,1,1.67-.63A2.3,2.3,0,0,1,237.78,31.45Z" transform="translate(0 0)"/><path d="M246.36,36.19a6.69,6.69,0,0,1,2.62-.48v3.46l-.84-.05a3.44,3.44,0,0,0-2.52.9,3.67,3.67,0,0,0-.91,2.7v6.1H241V35.9h3.57v1.71A4.16,4.16,0,0,1,246.36,36.19Z" transform="translate(0 0)"/><path d="M263.89,43.42h-9.77a3,3,0,0,0,1.25,1.89,4.08,4.08,0,0,0,2.45.7,4.92,4.92,0,0,0,1.78-.3,4.42,4.42,0,0,0,1.46-1l2,2.16A6.71,6.71,0,0,1,257.72,49a8.5,8.5,0,0,1-3.86-.85,6.29,6.29,0,0,1-2.6-2.37,6.93,6.93,0,0,1,0-6.85,6.35,6.35,0,0,1,2.47-2.38,7.36,7.36,0,0,1,3.52-.85,7.13,7.13,0,0,1,3.43.82,5.84,5.84,0,0,1,2.41,2.34,6.89,6.89,0,0,1,.88,3.54C264,42.46,263.94,42.79,263.89,43.42Zm-8.76-4.16a3.07,3.07,0,0,0-1.06,2h6.36a3.11,3.11,0,0,0-1.05-1.95,3.17,3.17,0,0,0-2.12-.74A3.21,3.21,0,0,0,255.13,39.26Z" transform="translate(0 0)"/><path d="M170.2,76a8.3,8.3,0,0,1-3.28-3.1,8.58,8.58,0,0,1,3.28-12,9.85,9.85,0,0,1,4.72-1.12,9.74,9.74,0,0,1,4.7,1.12,8.7,8.7,0,0,1,3.29,12,8.4,8.4,0,0,1-3.29,3.1,9.64,9.64,0,0,1-4.7,1.13A9.74,9.74,0,0,1,170.2,76Zm7.41-2.86a4.93,4.93,0,0,0,1.88-1.91,6,6,0,0,0,0-5.57,4.86,4.86,0,0,0-1.88-1.91,5.66,5.66,0,0,0-5.38,0,4.86,4.86,0,0,0-1.88,1.91,6,6,0,0,0,0,5.57,4.93,4.93,0,0,0,1.88,1.91,5.66,5.66,0,0,0,5.38,0Z" transform="translate(0 0)"/><path d="M202.45,60v16.8h-3.19l-8.38-10.2v10.2H187V60h3.22l8.35,10.2V60Z" transform="translate(0 0)"/><path d="M228.51,76.82l0-10.08-5,8.31h-1.75L216.87,67v9.86h-3.65V60h3.22l6.29,10.44L228.92,60h3.19l0,16.8Z" transform="translate(0 0)"/><path d="M238,75.12a7.69,7.69,0,0,1-2-5.69V60h3.89v9.27q0,4.51,3.74,4.51a3.51,3.51,0,0,0,2.79-1.09,5.1,5.1,0,0,0,1-3.42V60h3.84v9.41a7.65,7.65,0,0,1-2,5.69,8.89,8.89,0,0,1-11.21,0Z" transform="translate(0 0)"/><path d="M258.54,63.19h-5.38V60H267.8v3.17h-5.38V76.82h-3.88Z" transform="translate(0 0)"/><path d="M282.9,73.7v3.12h-13V60h12.69v3.12h-8.83v3.65h7.8v3h-7.8V73.7Z" transform="translate(0 0)"/><path d="M195.85,253.34v6H192v-6l-6.5-10.8h4.12l4.49,7.46,4.49-7.46h3.82Z" transform="translate(0 0)"/><path d="M205,258.64a6.38,6.38,0,0,1-2.54-2.37,6.92,6.92,0,0,1,0-6.86A6.38,6.38,0,0,1,205,247a7.84,7.84,0,0,1,3.66-.85,7.73,7.73,0,0,1,3.64.85,6.26,6.26,0,0,1,2.52,2.37,6.85,6.85,0,0,1,0,6.86,6.26,6.26,0,0,1-2.52,2.37,7.73,7.73,0,0,1-3.64.85A7.84,7.84,0,0,1,205,258.64Zm6-3.2a4.13,4.13,0,0,0,0-5.2,3.11,3.11,0,0,0-2.36-1,3.16,3.16,0,0,0-2.38,1,4.07,4.07,0,0,0,0,5.2,3.16,3.16,0,0,0,2.38,1A3.11,3.11,0,0,0,211,255.44Z" transform="translate(0 0)"/><path d="M231.2,246.38V259.3h-3.55v-1.54a4.92,4.92,0,0,1-1.78,1.28,6.08,6.08,0,0,1-6.26-1,5.83,5.83,0,0,1-1.49-4.34v-7.3h3.74v6.75c0,2.08.88,3.12,2.62,3.12a2.78,2.78,0,0,0,2.16-.88,3.7,3.7,0,0,0,.82-2.6v-6.39Z" transform="translate(0 0)"/><path d="M237.78,241.93a2.25,2.25,0,0,1,.64,1.67,4,4,0,0,1-.12,1,11.54,11.54,0,0,1-.5,1.44l-1.39,3.46H234l1-3.8a2,2,0,0,1-.93-.79,2.25,2.25,0,0,1-.34-1.27,2.22,2.22,0,0,1,.66-1.67,2.33,2.33,0,0,1,1.67-.63A2.3,2.3,0,0,1,237.78,241.93Z" transform="translate(0 0)"/><path d="M246.36,246.67a6.69,6.69,0,0,1,2.62-.48v3.46l-.84-.05a3.44,3.44,0,0,0-2.52.9,3.67,3.67,0,0,0-.91,2.7v6.1H241V246.38h3.57v1.71A4.16,4.16,0,0,1,246.36,246.67Z" transform="translate(0 0)"/><path d="M263.89,253.9h-9.77a3,3,0,0,0,1.25,1.89,4.08,4.08,0,0,0,2.45.7,4.92,4.92,0,0,0,1.78-.3,4.42,4.42,0,0,0,1.46-.95l2,2.16a6.71,6.71,0,0,1-5.33,2.09,8.5,8.5,0,0,1-3.86-.85,6.29,6.29,0,0,1-2.6-2.37,6.93,6.93,0,0,1,0-6.85,6.35,6.35,0,0,1,2.47-2.38,7.36,7.36,0,0,1,3.52-.85,7.13,7.13,0,0,1,3.43.82,5.84,5.84,0,0,1,2.41,2.34,6.89,6.89,0,0,1,.88,3.54C264,252.94,263.94,253.27,263.89,253.9Zm-8.76-4.16a3.07,3.07,0,0,0-1.06,2h6.36a3.11,3.11,0,0,0-1.05-2,3.17,3.17,0,0,0-2.12-.74A3.21,3.21,0,0,0,255.13,249.74Z" transform="translate(0 0)"/><path d="M173.55,280.09a4.17,4.17,0,0,1,.82,2.63,3.89,3.89,0,0,1-1.72,3.4,8.77,8.77,0,0,1-5,1.18H159V270.5h8.21a8,8,0,0,1,4.71,1.18,3.71,3.71,0,0,1,1.65,3.19,4,4,0,0,1-2.23,3.7A4.38,4.38,0,0,1,173.55,280.09Zm-10.73-6.66v4h3.87a3.93,3.93,0,0,0,2.18-.5,1.68,1.68,0,0,0,.75-1.49,1.65,1.65,0,0,0-.75-1.48,4,4,0,0,0-2.18-.49Zm6.86,10.44a1.71,1.71,0,0,0,.78-1.56c0-1.39-1-2.09-3.1-2.09h-4.54v4.16h4.54A4.29,4.29,0,0,0,169.68,283.87Z" transform="translate(0 0)"/><path d="M193.9,287.3l-3.24-4.68h-3.57v4.68H183.2V270.5h7.27a9.29,9.29,0,0,1,3.88.75,5.74,5.74,0,0,1,2.53,2.11,5.83,5.83,0,0,1,.89,3.24,5.45,5.45,0,0,1-3.46,5.3l3.77,5.4Zm-1-12.87a4.06,4.06,0,0,0-2.66-.76h-3.17v5.86h3.17a4.06,4.06,0,0,0,2.66-.77,3,3,0,0,0,0-4.33Z" transform="translate(0 0)"/><path d="M213.39,284.18v3.12h-13V270.5h12.7v3.12h-8.83v3.65h7.8v3h-7.8v3.88Z" transform="translate(0 0)"/><path d="M233.43,283.7h-7.8l-1.49,3.6h-4l7.49-16.8h3.84L239,287.3h-4.08Zm-1.22-2.95-2.67-6.43-2.66,6.43Z" transform="translate(0 0)"/><path d="M252.75,280.7l-2.26,2.36v4.24h-3.86V270.5h3.86v7.85l7.44-7.85h4.32l-7,7.49,7.37,9.31h-4.53Z" transform="translate(0 0)"/><path d="M263.93,270.5h3.89v16.8h-3.89Z" transform="translate(0 0)"/><path d="M293.09,270.5v16.8H289.9l-8.37-10.2v10.2h-3.84V270.5h3.21l8.35,10.2V270.5Z" transform="translate(0 0)"/><path d="M197.19,306.65h3.55v6.81a10.09,10.09,0,0,1-3.16,1.59,12.25,12.25,0,0,1-3.63.55,9.74,9.74,0,0,1-4.7-1.12,8.28,8.28,0,0,1-3.28-3.09,9,9,0,0,1,0-8.95,8.22,8.22,0,0,1,3.3-3.1,10.06,10.06,0,0,1,4.75-1.12,10.31,10.31,0,0,1,4,.75,7.87,7.87,0,0,1,3,2.16l-2.5,2.3a5.78,5.78,0,0,0-4.34-1.89,5.89,5.89,0,0,0-2.86.67,4.84,4.84,0,0,0-1.94,1.89,5.95,5.95,0,0,0,0,5.6,4.83,4.83,0,0,0,1.93,1.9,5.66,5.66,0,0,0,2.82.69,6.27,6.27,0,0,0,3-.72Z" transform="translate(0 0)"/><path d="M219.79,313.61a7.67,7.67,0,0,1-2-5.69v-9.41h3.89v9.27c0,3,1.25,4.51,3.75,4.51a3.53,3.53,0,0,0,2.78-1.09,5.1,5.1,0,0,0,1-3.42v-9.27H233v9.41a7.71,7.71,0,0,1-2,5.69,8.89,8.89,0,0,1-11.21,0Z" transform="translate(0 0)"/><path d="M254.78,299.26a5.74,5.74,0,0,1,2.53,2.11,6.32,6.32,0,0,1,0,6.47,5.68,5.68,0,0,1-2.53,2.11,9.46,9.46,0,0,1-3.88.73h-3.38v4.63h-3.89v-16.8h7.27A9.29,9.29,0,0,1,254.78,299.26Zm-1.43,7.5a3,3,0,0,0,0-4.32,4.06,4.06,0,0,0-2.66-.76h-3.17v5.83h3.17A4.11,4.11,0,0,0,253.35,306.76Z" transform="translate(0 0)"/><path d="M261,314.87a2.08,2.08,0,0,1-.66-1.55,2,2,0,0,1,.65-1.52,2.52,2.52,0,0,1,3.31,0,2,2,0,0,1,.65,1.52,2.08,2.08,0,0,1-.66,1.55,2.46,2.46,0,0,1-3.29,0Zm-.59-16.36h4.47l-.75,11h-3Z" transform="translate(0 0)"/><path d="M346.34,48a8.29,8.29,0,0,1-3.26-3.09,9,9,0,0,1,0-9,8.29,8.29,0,0,1,3.26-3.09A9.63,9.63,0,0,1,351,31.75a9.87,9.87,0,0,1,3.95.77,7.93,7.93,0,0,1,3,2.21l-2.5,2.3a5.36,5.36,0,0,0-4.22-2,5.54,5.54,0,0,0-2.78.69,4.75,4.75,0,0,0-1.91,1.91,5.95,5.95,0,0,0,0,5.56,4.75,4.75,0,0,0,1.91,1.91,5.54,5.54,0,0,0,2.78.69,5.33,5.33,0,0,0,4.22-2l2.5,2.31a7.78,7.78,0,0,1-3,2.23,9.88,9.88,0,0,1-4,.77A9.56,9.56,0,0,1,346.34,48Z" transform="translate(0 0)"/><path d="M369.94,37.16a5.45,5.45,0,0,1,1.61,4.31v7.37h-3.5V47.23c-.71,1.2-2,1.8-3.94,1.8a6.22,6.22,0,0,1-2.58-.5,3.91,3.91,0,0,1-1.67-1.39,3.69,3.69,0,0,1-.57-2,3.37,3.37,0,0,1,1.35-2.83,6.91,6.91,0,0,1,4.19-1h3a2.38,2.38,0,0,0-.75-1.89,3.26,3.26,0,0,0-2.23-.66,6.44,6.44,0,0,0-2,.33,5.29,5.29,0,0,0-1.69.87l-1.34-2.61a8.2,8.2,0,0,1,2.53-1.16,11.35,11.35,0,0,1,3-.4A6.73,6.73,0,0,1,369.94,37.16Zm-3.19,8.91a2.43,2.43,0,0,0,1.06-1.31V43.44h-2.57c-1.54,0-2.3.5-2.3,1.51a1.33,1.33,0,0,0,.56,1.14,2.55,2.55,0,0,0,1.55.42A3.31,3.31,0,0,0,366.75,46.07Z" transform="translate(0 0)"/><path d="M386.66,37.18a5.72,5.72,0,0,1,1.48,4.27v7.39h-3.75V42a3.37,3.37,0,0,0-.67-2.29,2.48,2.48,0,0,0-1.94-.75,3,3,0,0,0-2.26.87,3.64,3.64,0,0,0-.84,2.61v6.38h-3.74V35.93h3.57v1.51a5.07,5.07,0,0,1,1.85-1.26,6.35,6.35,0,0,1,2.42-.44A5.32,5.32,0,0,1,386.66,37.18Z" transform="translate(0 0)"/><path d="M394.4,31.48a2.23,2.23,0,0,1,.65,1.66,4,4,0,0,1-.12,1,12,12,0,0,1-.51,1.44L393,39h-2.37l1-3.79a2.09,2.09,0,0,1-.94-.79,2.39,2.39,0,0,1-.33-1.28,2.16,2.16,0,0,1,.66-1.66,2.47,2.47,0,0,1,3.32,0Z" transform="translate(0 0)"/><path d="M405.92,48.22a4,4,0,0,1-1.36.61,7.11,7.11,0,0,1-1.69.2,5,5,0,0,1-3.56-1.17,4.52,4.52,0,0,1-1.26-3.46V39.1h-2V36.22h2V33.07h3.74v3.15H405V39.1h-3.22v5.25a1.74,1.74,0,0,0,.42,1.26,1.55,1.55,0,0,0,1.19.45,2.39,2.39,0,0,0,1.51-.48Z" transform="translate(0 0)"/><path d="M333.26,65.18a5.74,5.74,0,0,1,1.48,4.28v7.39H331V70a3.35,3.35,0,0,0-.67-2.29,2.49,2.49,0,0,0-1.94-.76,3,3,0,0,0-2.26.88,3.61,3.61,0,0,0-.84,2.6v6.39h-3.74V59h3.74v6.24a4.94,4.94,0,0,1,1.8-1.14,6.57,6.57,0,0,1,2.3-.4A5.32,5.32,0,0,1,333.26,65.18Z" transform="translate(0 0)"/><path d="M350.7,71.45h-9.77a3,3,0,0,0,1.25,1.89,4.07,4.07,0,0,0,2.44.7,4.94,4.94,0,0,0,1.79-.3,4.28,4.28,0,0,0,1.45-.95l2,2.16A6.72,6.72,0,0,1,344.53,77a8.42,8.42,0,0,1-3.87-.85,6.27,6.27,0,0,1-2.59-2.37,6.47,6.47,0,0,1-.91-3.43,6.62,6.62,0,0,1,.9-3.42,6.26,6.26,0,0,1,2.47-2.37,7.61,7.61,0,0,1,7,0,5.9,5.9,0,0,1,2.41,2.34,6.94,6.94,0,0,1,.88,3.54S350.74,70.82,350.7,71.45Zm-8.76-4.15a3,3,0,0,0-1.06,2h6.36a3.1,3.1,0,0,0-1.06-2,3.13,3.13,0,0,0-2.11-.73A3.19,3.19,0,0,0,341.94,67.3Z" transform="translate(0 0)"/><path d="M363.08,65.17a5.47,5.47,0,0,1,1.61,4.31v7.37h-3.51V75.24q-1.05,1.8-3.93,1.8a6.18,6.18,0,0,1-2.58-.5,3.81,3.81,0,0,1-1.67-1.4,3.64,3.64,0,0,1-.58-2,3.36,3.36,0,0,1,1.36-2.83,6.89,6.89,0,0,1,4.19-1h3a2.37,2.37,0,0,0-.74-1.88,3.28,3.28,0,0,0-2.23-.66,6.68,6.68,0,0,0-2,.32,5.4,5.4,0,0,0-1.69.88L352.9,65.3a8.25,8.25,0,0,1,2.54-1.15,11.36,11.36,0,0,1,3-.41A6.73,6.73,0,0,1,363.08,65.17Zm-3.19,8.91a2.45,2.45,0,0,0,1.05-1.31V71.45h-2.56c-1.54,0-2.31.5-2.31,1.51a1.36,1.36,0,0,0,.56,1.14,2.57,2.57,0,0,0,1.55.42A3.35,3.35,0,0,0,359.89,74.08Z" transform="translate(0 0)"/><path d="M373.46,64.22a6.71,6.71,0,0,1,2.63-.48V67.2l-.84,0a3.41,3.41,0,0,0-2.52.9,3.63,3.63,0,0,0-.92,2.7v6.1h-3.74V63.94h3.58v1.7A4.15,4.15,0,0,1,373.46,64.22Z" transform="translate(0 0)"/><path d="M398,63.94l-5.83,13.7a6.61,6.61,0,0,1-2.2,3.14,5.35,5.35,0,0,1-3.15.92,6.47,6.47,0,0,1-2-.32,4.18,4.18,0,0,1-1.61-.86l1.37-2.66a3.4,3.4,0,0,0,1,.6,3.21,3.21,0,0,0,1.12.21A2,2,0,0,0,388,78.3a3.2,3.2,0,0,0,.86-1.24l.05-.12-5.59-13h3.86l3.62,8.76,3.65-8.76Z" transform="translate(0 0)"/><path d="M401.75,76.19a6.36,6.36,0,0,1-2.53-2.37,6.92,6.92,0,0,1,0-6.86,6.26,6.26,0,0,1,2.53-2.36,7.73,7.73,0,0,1,3.67-.86,7.64,7.64,0,0,1,3.64.86A6.3,6.3,0,0,1,411.58,67a6.85,6.85,0,0,1,0,6.86,6.39,6.39,0,0,1-2.52,2.37,7.64,7.64,0,0,1-3.64.85A7.73,7.73,0,0,1,401.75,76.19Zm6-3.19a4.15,4.15,0,0,0,0-5.21,3.11,3.11,0,0,0-2.36-1,3.15,3.15,0,0,0-2.38,1A4.08,4.08,0,0,0,403,73a3.19,3.19,0,0,0,2.38,1A3.14,3.14,0,0,0,407.78,73Z" transform="translate(0 0)"/><path d="M428,63.94V76.85h-3.55V75.31a5.06,5.06,0,0,1-1.78,1.29,5.69,5.69,0,0,1-2.23.44,5.51,5.51,0,0,1-4-1.46,5.83,5.83,0,0,1-1.49-4.35V63.94h3.74v6.74c0,2.08.87,3.12,2.62,3.12a2.81,2.81,0,0,0,2.16-.88,3.7,3.7,0,0,0,.81-2.6V63.94Z" transform="translate(0 0)"/><path d="M345.81,243.26a6,6,0,0,1,2.53,8.58,5.65,5.65,0,0,1-2.53,2.12,9.58,9.58,0,0,1-3.87.73h-3.39v4.63h-3.89v-16.8h7.28A9.41,9.41,0,0,1,345.81,243.26Zm-1.43,7.5a2.62,2.62,0,0,0,.92-2.14,2.68,2.68,0,0,0-.92-2.18,4.08,4.08,0,0,0-2.66-.75h-3.17v5.83h3.17A4,4,0,0,0,344.38,250.76Z" transform="translate(0 0)"/><path d="M352,241.51h3.74v17.81H352Z" transform="translate(0 0)"/><path d="M371.77,253.92H362a3.07,3.07,0,0,0,1.25,1.9,4.14,4.14,0,0,0,2.45.69,4.92,4.92,0,0,0,1.78-.3,4.27,4.27,0,0,0,1.46-.95l2,2.16a6.67,6.67,0,0,1-5.33,2.09,8.37,8.37,0,0,1-3.86-.85,6.34,6.34,0,0,1-2.6-2.36,7,7,0,0,1,0-6.86,6.4,6.4,0,0,1,2.47-2.37,7.69,7.69,0,0,1,6.95,0,6,6,0,0,1,2.41,2.34,6.94,6.94,0,0,1,.88,3.54C371.84,253,371.82,253.3,371.77,253.92ZM363,249.77a3,3,0,0,0-1.06,2h6.36a3.06,3.06,0,0,0-3.17-2.69A3.21,3.21,0,0,0,363,249.77Z" transform="translate(0 0)"/><path d="M384.15,247.64a5.49,5.49,0,0,1,1.61,4.31v7.37h-3.5v-1.61c-.71,1.2-2,1.8-3.94,1.8a6.22,6.22,0,0,1-2.58-.5,3.91,3.91,0,0,1-1.67-1.39,3.69,3.69,0,0,1-.57-2,3.37,3.37,0,0,1,1.35-2.83,6.89,6.89,0,0,1,4.19-1h3a2.38,2.38,0,0,0-.75-1.89,3.26,3.26,0,0,0-2.23-.66,6.39,6.39,0,0,0-2,.33,5.19,5.19,0,0,0-1.69.87L374,247.78a8.09,8.09,0,0,1,2.53-1.16,11.35,11.35,0,0,1,3-.4A6.73,6.73,0,0,1,384.15,247.64ZM381,256.55a2.43,2.43,0,0,0,1.06-1.31v-1.32h-2.57c-1.54,0-2.31.5-2.31,1.51a1.34,1.34,0,0,0,.57,1.14,2.53,2.53,0,0,0,1.55.42A3.31,3.31,0,0,0,381,256.55Z" transform="translate(0 0)"/><path d="M390.34,259.12a8.27,8.27,0,0,1-2.44-1l1.24-2.69a7.88,7.88,0,0,0,2.09.9,8.88,8.88,0,0,0,2.4.35c1.58,0,2.38-.39,2.38-1.18a.84.84,0,0,0-.65-.79,10.17,10.17,0,0,0-2-.41,19,19,0,0,1-2.62-.55,4.08,4.08,0,0,1-1.79-1.1,3.16,3.16,0,0,1-.75-2.26,3.49,3.49,0,0,1,.71-2.17,4.64,4.64,0,0,1,2.06-1.48,8.83,8.83,0,0,1,3.2-.52,12.68,12.68,0,0,1,2.73.3,7.67,7.67,0,0,1,2.24.82L397.9,250a7.42,7.42,0,0,0-3.72-1,3.84,3.84,0,0,0-1.8.33,1,1,0,0,0-.6.87.86.86,0,0,0,.65.84,11.17,11.17,0,0,0,2.07.45,22.93,22.93,0,0,1,2.59.57,3.9,3.9,0,0,1,1.75,1.09,3.12,3.12,0,0,1,.74,2.21,3.38,3.38,0,0,1-.72,2.13,4.61,4.61,0,0,1-2.1,1.46,9.44,9.44,0,0,1-3.27.51A12.82,12.82,0,0,1,390.34,259.12Z" transform="translate(0 0)"/><path d="M414.46,253.92H404.7a3.06,3.06,0,0,0,1.24,1.9,4.19,4.19,0,0,0,2.45.69,5,5,0,0,0,1.79-.3,4.23,4.23,0,0,0,1.45-.95l2,2.16a6.66,6.66,0,0,1-5.33,2.09,8.4,8.4,0,0,1-3.86-.85,6.31,6.31,0,0,1-2.59-2.36,6.53,6.53,0,0,1-.91-3.44,6.62,6.62,0,0,1,.9-3.42,6.33,6.33,0,0,1,2.47-2.37,7.69,7.69,0,0,1,6.95,0,6,6,0,0,1,2.41,2.34,7,7,0,0,1,.88,3.54C414.54,253,414.51,253.3,414.46,253.92Zm-8.76-4.15a3.08,3.08,0,0,0-1.05,2H411a3.1,3.1,0,0,0-1.06-2,3.13,3.13,0,0,0-2.11-.73A3.24,3.24,0,0,0,405.7,249.77Z" transform="translate(0 0)"/><path d="M354.18,287.33l0-10.08-4.94,8.3h-1.75l-4.92-8.09v9.87h-3.65v-16.8h3.21L348.39,281l6.19-10.44h3.2l0,16.8Z" transform="translate(0 0)"/><path d="M363.67,285.62a7.63,7.63,0,0,1-2-5.68v-9.41h3.89v9.26q0,4.51,3.75,4.51a3.5,3.5,0,0,0,2.78-1.09,5.1,5.1,0,0,0,1-3.42v-9.26h3.84v9.41a7,7,0,0,1-7.61,7.68A7.58,7.58,0,0,1,363.67,285.62Z" transform="translate(0 0)"/><path d="M384.2,273.7h-5.38v-3.17h14.64v3.17h-5.37v13.63H384.2Z" transform="translate(0 0)"/><path d="M408.56,284.21v3.12h-13v-16.8h12.7v3.12h-8.83v3.65h7.79v3h-7.79v3.89Z" transform="translate(0 0)"/><path d="M495.66,45.74v3.12h-13V32.06h12.69v3.12h-8.83v3.65h7.8v3h-7.8v3.88Z" transform="translate(0 0)"/><path d="M498.75,32.06h3.89V45.7h8.42v3.16H498.75Z" transform="translate(0 0)"/><path d="M528.54,48.86l0-10.08-4.94,8.31h-1.75L516.9,39v9.86h-3.65V32.06h3.21l6.29,10.44,6.19-10.44h3.2l0,16.8Z" transform="translate(0 0)"/><path d="M539.59,48a8.33,8.33,0,0,1-3.29-3.1,8.93,8.93,0,0,1,0-8.91,8.43,8.43,0,0,1,3.29-3.11,10.46,10.46,0,0,1,9.42,0A8.56,8.56,0,0,1,552.3,36,8.55,8.55,0,0,1,549,48a10.38,10.38,0,0,1-9.42,0Zm7.4-2.86a5,5,0,0,0,1.89-1.91,6,6,0,0,0,0-5.57A5,5,0,0,0,547,35.77a5.64,5.64,0,0,0-5.37,0,5,5,0,0,0-1.89,1.91,6,6,0,0,0,0,5.57,5,5,0,0,0,1.89,1.91,5.64,5.64,0,0,0,5.37,0Z" transform="translate(0 0)"/><path d="M556.27,48.42a2.06,2.06,0,0,1-.66-1.55,2,2,0,0,1,.65-1.52,2.29,2.29,0,0,1,1.65-.61,2.31,2.31,0,0,1,1.66.61,2,2,0,0,1,.65,1.52,2.06,2.06,0,0,1-.66,1.55,2.43,2.43,0,0,1-3.29,0Zm-.59-16.36h4.46l-.74,11h-3Z" transform="translate(0 0)"/><path d="M462.27,71.57a10.48,10.48,0,0,1,0-5.14,7.26,7.26,0,0,1,.93-2.11h1.49a9,9,0,0,0-.92,2.26,10.28,10.28,0,0,0,0,4.85,9,9,0,0,0,.92,2.25H463.2A7.26,7.26,0,0,1,462.27,71.57Z" transform="translate(0 0)"/><path d="M470.75,69.49h-4.07a1.2,1.2,0,0,0,.52.79,1.66,1.66,0,0,0,1,.29,2.09,2.09,0,0,0,.74-.12,1.79,1.79,0,0,0,.61-.4l.83.9a2.8,2.8,0,0,1-2.22.87,3.44,3.44,0,0,1-1.61-.35,2.59,2.59,0,0,1-1.08-1,2.64,2.64,0,0,1-.38-1.43,2.66,2.66,0,0,1,1.4-2.41,3,3,0,0,1,1.47-.36,3.11,3.11,0,0,1,1.43.34,2.55,2.55,0,0,1,1,1,2.82,2.82,0,0,1,.37,1.47S470.77,69.23,470.75,69.49Zm-3.65-1.73a1.28,1.28,0,0,0-.44.82h2.65a1.3,1.3,0,0,0-.44-.81,1.35,1.35,0,0,0-.88-.31A1.33,1.33,0,0,0,467.1,67.76Z" transform="translate(0 0)"/><path d="M476.7,66.88a2.39,2.39,0,0,1,.62,1.78v3.08h-1.56V68.9a1.44,1.44,0,0,0-.28-1,1,1,0,0,0-.81-.32,1.24,1.24,0,0,0-.94.37,1.46,1.46,0,0,0-.35,1.08v2.66h-1.56V66.36h1.49V67a2,2,0,0,1,.77-.52,2.71,2.71,0,0,1,1-.19A2.21,2.21,0,0,1,476.7,66.88Z" transform="translate(0 0)"/><path d="M479.76,71.47a2.73,2.73,0,0,1,0-4.83,3.41,3.41,0,0,1,3.05,0,2.74,2.74,0,0,1,0,4.83,3.5,3.5,0,0,1-3.05,0Zm2.51-1.33a1.7,1.7,0,0,0,0-2.17,1.3,1.3,0,0,0-1-.41,1.32,1.32,0,0,0-1,.41,1.7,1.7,0,0,0,0,2.17,1.31,1.31,0,0,0,1,.4A1.29,1.29,0,0,0,482.27,70.14Z" transform="translate(0 0)"/><path d="M490.7,66.36v5.38h-1.48V71.1a2,2,0,0,1-.74.54,2.41,2.41,0,0,1-.93.18,2.27,2.27,0,0,1-1.68-.61,2.4,2.4,0,0,1-.62-1.81v-3h1.56v2.81c0,.87.36,1.3,1.09,1.3a1.19,1.19,0,0,0,.9-.36,1.58,1.58,0,0,0,.34-1.09V66.36Z" transform="translate(0 0)"/><path d="M497.7,66.36v4.48a2.88,2.88,0,0,1-.77,2.2,3.2,3.2,0,0,1-2.25.72,5.46,5.46,0,0,1-1.48-.19A3.05,3.05,0,0,1,492,73l.62-1.12a2.41,2.41,0,0,0,.86.45,3.37,3.37,0,0,0,1,.16,1.68,1.68,0,0,0,1.19-.36,1.44,1.44,0,0,0,.39-1.11v-.23a2.19,2.19,0,0,1-1.7.67,2.81,2.81,0,0,1-1.36-.32,2.45,2.45,0,0,1-1-.92,2.53,2.53,0,0,1-.36-1.36,2.58,2.58,0,0,1,.36-1.36,2.5,2.5,0,0,1,1-.91,2.82,2.82,0,0,1,1.36-.33,2.15,2.15,0,0,1,1.78.77v-.69Zm-1.94,3.48a1.34,1.34,0,0,0,0-1.91,1.58,1.58,0,0,0-2,0,1.34,1.34,0,0,0,0,1.91,1.61,1.61,0,0,0,2,0Z" transform="translate(0 0)"/><path d="M504,66.88a2.39,2.39,0,0,1,.62,1.78v3.08h-1.56V68.9a1.44,1.44,0,0,0-.28-1,1,1,0,0,0-.81-.32,1.24,1.24,0,0,0-.94.37,1.46,1.46,0,0,0-.35,1.08v2.66h-1.56V64.32h1.56v2.6a2,2,0,0,1,.75-.47,2.69,2.69,0,0,1,1-.17A2.21,2.21,0,0,1,504,66.88Z" transform="translate(0 0)"/><path d="M507.35,70.15a.93.93,0,0,1,.27.69,1.75,1.75,0,0,1-.05.4,5.44,5.44,0,0,1-.22.6l-.57,1.44h-1l.44-1.59a.79.79,0,0,1-.4-.32,1,1,0,0,1-.14-.53.93.93,0,0,1,.27-.69,1,1,0,0,1,.7-.27A.93.93,0,0,1,507.35,70.15Z" transform="translate(0 0)"/><path d="M511.51,64.32h1.56v7.42h-1.56Z" transform="translate(0 0)"/><path d="M519.76,69.49h-4.07a1.2,1.2,0,0,0,.52.79,1.66,1.66,0,0,0,1,.29,2.13,2.13,0,0,0,.74-.12,1.79,1.79,0,0,0,.61-.4l.83.9a2.8,2.8,0,0,1-2.22.87,3.44,3.44,0,0,1-1.61-.35,2.59,2.59,0,0,1-1.08-1,2.64,2.64,0,0,1-.38-1.43,2.74,2.74,0,0,1,.37-1.42,2.65,2.65,0,0,1,1-1,3,3,0,0,1,1.47-.36,3.11,3.11,0,0,1,1.43.34,2.55,2.55,0,0,1,1,1,2.92,2.92,0,0,1,.37,1.47S519.78,69.23,519.76,69.49Zm-3.65-1.73a1.28,1.28,0,0,0-.44.82h2.65a1.3,1.3,0,0,0-.44-.81,1.35,1.35,0,0,0-.88-.31A1.33,1.33,0,0,0,516.11,67.76Z" transform="translate(0 0)"/><path d="M524.24,71.48a1.66,1.66,0,0,1-.57.26,2.68,2.68,0,0,1-.7.08,2.09,2.09,0,0,1-1.49-.49,1.85,1.85,0,0,1-.52-1.44V67.68h-.83v-1.2H521V65.17h1.56v1.31h1.34v1.2h-1.34v2.19a.72.72,0,0,0,.17.53.67.67,0,0,0,.5.18,1,1,0,0,0,.63-.2Z" transform="translate(0 0)"/><path d="M526.41,64.51a.93.93,0,0,1,.27.69,1.75,1.75,0,0,1,0,.4q-.06.21-.21.6l-.58,1.44h-1l.43-1.58a.79.79,0,0,1-.39-.33.89.89,0,0,1-.14-.53.93.93,0,0,1,.27-.69,1,1,0,0,1,.7-.27A.93.93,0,0,1,526.41,64.51Z" transform="translate(0 0)"/><path d="M528,71.66a3.26,3.26,0,0,1-1-.42l.52-1.12a3.17,3.17,0,0,0,.87.38,3.5,3.5,0,0,0,1,.14c.66,0,1-.16,1-.49a.35.35,0,0,0-.27-.33,4.87,4.87,0,0,0-.83-.17,6.57,6.57,0,0,1-1.09-.23,1.63,1.63,0,0,1-.75-.46,1.3,1.3,0,0,1-.31-.94,1.49,1.49,0,0,1,.29-.9,2,2,0,0,1,.86-.62,3.84,3.84,0,0,1,1.34-.22,5.44,5.44,0,0,1,1.13.13,3.31,3.31,0,0,1,.94.34l-.52,1.11a3.19,3.19,0,0,0-1.55-.4,1.58,1.58,0,0,0-.75.14.42.42,0,0,0-.25.36.35.35,0,0,0,.27.35,4.38,4.38,0,0,0,.86.19q.66.12,1.08.24a1.6,1.6,0,0,1,.73.45,1.33,1.33,0,0,1,.31.92,1.41,1.41,0,0,1-.3.89,1.93,1.93,0,0,1-.88.61,4,4,0,0,1-1.36.21A5.17,5.17,0,0,1,528,71.66Z" transform="translate(0 0)"/><path d="M544.17,66.88a2.41,2.41,0,0,1,.6,1.78v3.08h-1.56V68.9a1.44,1.44,0,0,0-.27-1,.94.94,0,0,0-.75-.32,1.1,1.1,0,0,0-.87.36A1.5,1.5,0,0,0,541,69v2.7h-1.56V68.9c0-.84-.34-1.27-1-1.27a1.09,1.09,0,0,0-.86.36,1.5,1.5,0,0,0-.32,1.05v2.7h-1.56V66.36h1.49V67a2,2,0,0,1,.73-.52,2.49,2.49,0,0,1,1-.18,2.33,2.33,0,0,1,1,.23,1.93,1.93,0,0,1,.74.65,2.23,2.23,0,0,1,.83-.65,2.72,2.72,0,0,1,1.11-.23A2.16,2.16,0,0,1,544.17,66.88Z" transform="translate(0 0)"/><path d="M547.2,71.47a2.73,2.73,0,0,1,0-4.83,3.41,3.41,0,0,1,3,0,2.74,2.74,0,0,1,0,4.83,3.5,3.5,0,0,1-3,0Zm2.51-1.33a1.7,1.7,0,0,0,0-2.17,1.3,1.3,0,0,0-1-.41,1.32,1.32,0,0,0-1,.41,1.7,1.7,0,0,0,0,2.17,1.31,1.31,0,0,0,1,.4A1.29,1.29,0,0,0,549.71,70.14Z" transform="translate(0 0)"/><path d="M558,66.36l-2.27,5.38h-1.61l-2.26-5.38h1.61L554.91,70l1.54-3.66Z" transform="translate(0 0)"/><path d="M563.83,69.49h-4.07a1.2,1.2,0,0,0,.52.79,1.66,1.66,0,0,0,1,.29,2.13,2.13,0,0,0,.74-.12,1.79,1.79,0,0,0,.61-.4l.83.9a2.8,2.8,0,0,1-2.22.87,3.44,3.44,0,0,1-1.61-.35,2.59,2.59,0,0,1-1.08-1,2.64,2.64,0,0,1-.38-1.43,2.74,2.74,0,0,1,.37-1.42,2.65,2.65,0,0,1,1-1,3,3,0,0,1,1.47-.36,3.11,3.11,0,0,1,1.43.34,2.55,2.55,0,0,1,1,1,2.92,2.92,0,0,1,.37,1.47S563.85,69.23,563.83,69.49Zm-3.65-1.73a1.28,1.28,0,0,0-.44.82h2.65a1.3,1.3,0,0,0-.44-.81,1.35,1.35,0,0,0-.88-.31A1.33,1.33,0,0,0,560.18,67.76Z" transform="translate(0 0)"/><path d="M568.76,71.47a2.73,2.73,0,0,1,0-4.83,3.41,3.41,0,0,1,3,0,2.74,2.74,0,0,1,0,4.83,3.5,3.5,0,0,1-3,0Zm2.51-1.33a1.7,1.7,0,0,0,0-2.17,1.3,1.3,0,0,0-1-.41,1.32,1.32,0,0,0-1,.41,1.7,1.7,0,0,0,0,2.17,1.31,1.31,0,0,0,1,.4A1.29,1.29,0,0,0,571.27,70.14Z" transform="translate(0 0)"/><path d="M579.16,66.88a2.39,2.39,0,0,1,.62,1.78v3.08h-1.56V68.9a1.44,1.44,0,0,0-.28-1,1,1,0,0,0-.81-.32,1.24,1.24,0,0,0-.94.37,1.46,1.46,0,0,0-.35,1.08v2.66h-1.56V66.36h1.49V67a2,2,0,0,1,.77-.52,2.71,2.71,0,0,1,1-.19A2.21,2.21,0,0,1,579.16,66.88Z" transform="translate(0 0)"/><path d="M580.42,73.68a9.4,9.4,0,0,0,.93-2.25,9.42,9.42,0,0,0-.93-7.11h1.5a7.2,7.2,0,0,1,.93,2.1,9.7,9.7,0,0,1,.32,2.58,10.14,10.14,0,0,1-.31,2.58,7.07,7.07,0,0,1-.94,2.1Z" transform="translate(0 0)"/><path d="M503.8,253.26v6h-3.89v-6l-6.5-10.8h4.12l4.49,7.46,4.49-7.46h3.82Z" transform="translate(0 0)"/><path d="M525,256.1v3.12H512v-16.8h12.69v3.12h-8.83v3.64h7.8v3h-7.8v3.89Z" transform="translate(0 0)"/><path d="M529.73,259a9,9,0,0,1-3-1.4l1.32-2.93a8.94,8.94,0,0,0,2.57,1.27,9.61,9.61,0,0,0,3,.48,4.73,4.73,0,0,0,2.45-.49,1.48,1.48,0,0,0,.79-1.31,1.23,1.23,0,0,0-.46-1,3.6,3.6,0,0,0-1.2-.64c-.49-.16-1.15-.33-2-.53a25.87,25.87,0,0,1-3.15-.91,5.16,5.16,0,0,1-2.1-1.46,4,4,0,0,1-.87-2.69,4.64,4.64,0,0,1,.79-2.65,5.38,5.38,0,0,1,2.39-1.89,9.79,9.79,0,0,1,3.9-.69,13.17,13.17,0,0,1,3.14.38,9.49,9.49,0,0,1,2.69,1.11l-1.2,2.95a9.38,9.38,0,0,0-4.66-1.32,4.28,4.28,0,0,0-2.41.53,1.6,1.6,0,0,0-.78,1.39,1.36,1.36,0,0,0,.9,1.28,14,14,0,0,0,2.75.83,27,27,0,0,1,3.14.91,5.27,5.27,0,0,1,2.1,1.44,3.86,3.86,0,0,1,.88,2.67,4.53,4.53,0,0,1-.81,2.62,5.37,5.37,0,0,1-2.41,1.89,9.88,9.88,0,0,1-3.91.69A13.72,13.72,0,0,1,529.73,259Z" transform="translate(0 0)"/><path d="M543.22,258.77a2.06,2.06,0,0,1-.66-1.55,2,2,0,0,1,.65-1.52,2.29,2.29,0,0,1,1.65-.61,2.33,2.33,0,0,1,1.66.61,2,2,0,0,1,.65,1.52,2.07,2.07,0,0,1-.67,1.55,2.42,2.42,0,0,1-3.28,0Zm-.59-16.35h4.46l-.74,11h-3Z" transform="translate(0 0)"/><path d="M528.24,389V372.2h3.19l8.38,10.2V372.2h3.84V389h-3.22l-8.35-10.2V389Z" transform="translate(0 0)"/><path d="M520.83,373a8.35,8.35,0,0,1,3.29,3.11,8.92,8.92,0,0,1,0,8.9,8.35,8.35,0,0,1-3.29,3.11,10.38,10.38,0,0,1-9.42,0,8.58,8.58,0,0,1,0-15.12,10.38,10.38,0,0,1,9.42,0Zm-7.4,2.87a4.86,4.86,0,0,0-1.88,1.91,5.54,5.54,0,0,0-.69,2.78,5.6,5.6,0,0,0,.69,2.79,4.84,4.84,0,0,0,1.88,1.9,5.59,5.59,0,0,0,5.38,0,4.9,4.9,0,0,0,1.88-1.9,5.6,5.6,0,0,0,.68-2.79,5.53,5.53,0,0,0-.68-2.78,4.93,4.93,0,0,0-1.88-1.91,5.66,5.66,0,0,0-5.38,0Z" transform="translate(0 0)"/><path d="M504.15,372.65a2.06,2.06,0,0,1,.66,1.54,2,2,0,0,1-.64,1.53,2.56,2.56,0,0,1-3.32,0,2,2,0,0,1-.64-1.53,2.06,2.06,0,0,1,.66-1.54,2.42,2.42,0,0,1,3.28,0Zm.59,16.35h-4.46l.74-11h3Z" transform="translate(0 0)"/><path d="M95.75,160.55A2.2,2.2,0,0,1,96.81,162a2.39,2.39,0,0,1-.23,1.81A2.43,2.43,0,0,1,95.17,165a2.48,2.48,0,0,1-1.88-.18l-7.73-4.45L88,166.88a2.65,2.65,0,0,1-.23,1.88A2.37,2.37,0,0,1,86.38,170a2.32,2.32,0,0,1-1.76-.12,2.35,2.35,0,0,1-1.17-1.35L81.58,158l-8.44-4.92v9.85l8.08,6.91a2.06,2.06,0,0,1,.65,1.64,2.25,2.25,0,0,1-.76,1.58,2.44,2.44,0,0,1-1.7.65,2.55,2.55,0,0,1-1.82-.82l-4.45-5.39v9a2.24,2.24,0,0,1-.71,1.64,2.55,2.55,0,0,1-3.51,0,2.23,2.23,0,0,1-.7-1.64v-9l-4.46,5.39a2.18,2.18,0,0,1-1.7.82,2.62,2.62,0,0,1-1.75-.65,2.13,2.13,0,0,1-.82-1.58,2,2,0,0,1,.64-1.64l8.09-6.91v-9.85L59.78,158,57.9,168.52a2.36,2.36,0,0,1-4.33.29,2.71,2.71,0,0,1-.24-1.93l2.46-6.56-7.73,4.45a2.48,2.48,0,0,1-1.88.18,2.38,2.38,0,0,1-1.4-1.12,2.44,2.44,0,0,1-.24-1.81,2.2,2.2,0,0,1,1.06-1.47L53.33,156l-6.91-1.17a2.62,2.62,0,0,1-1.52-1.05,2.28,2.28,0,0,1-.41-1.82,2.14,2.14,0,0,1,1-1.52,2.38,2.38,0,0,1,1.88-.3l10,3.64,9.61-4.93-9.61-4.92-10,3.63a2.38,2.38,0,0,1-1.88-.29,2.14,2.14,0,0,1-1-1.52,2.27,2.27,0,0,1,.41-1.82,2.57,2.57,0,0,1,1.52-1l6.91-1.17-7.73-4.57a2.22,2.22,0,0,1-1.06-1.47,2.48,2.48,0,0,1,.24-1.82,2.4,2.4,0,0,1,1.4-1.11,2.44,2.44,0,0,1,1.88.18l7.73,4.45-2.46-6.56a2.65,2.65,0,0,1,.24-1.88,2.33,2.33,0,0,1,4.33.24l1.88,10.54,8.44,4.93v-9.85l-8.09-6.91a2,2,0,0,1-.64-1.64,2.16,2.16,0,0,1,.82-1.59,2.61,2.61,0,0,1,1.75-.64,2.15,2.15,0,0,1,1.7.82l4.46,5.39v-9a2.23,2.23,0,0,1,.7-1.64,2.52,2.52,0,0,1,3.51,0,2.24,2.24,0,0,1,.71,1.64v9l4.45-5.39a2.16,2.16,0,0,1,1.7-.82,2.65,2.65,0,0,1,1.76.64,2.19,2.19,0,0,1,.82,1.59,2.06,2.06,0,0,1-.65,1.64l-8.08,6.91v9.85l8.44-4.93,1.87-10.54a2.35,2.35,0,0,1,1.17-1.35,2.32,2.32,0,0,1,1.76-.12,2.37,2.37,0,0,1,1.41,1.23,2.65,2.65,0,0,1,.23,1.88l-2.46,6.56,7.73-4.45a2.43,2.43,0,0,1,3.52,2.75,2.22,2.22,0,0,1-1.06,1.47L88,141.69l6.91,1.17a2.6,2.6,0,0,1,1.53,1,2.31,2.31,0,0,1,.41,1.82,2.18,2.18,0,0,1-1,1.52,2.36,2.36,0,0,1-1.87.29l-10-3.63-9.61,4.92L84,153.76l10-3.64a2.36,2.36,0,0,1,1.87.3,2.15,2.15,0,0,1,1,1.46,2.53,2.53,0,0,1-.35,1.82,2.38,2.38,0,0,1-1.59,1.11L88,156Z" transform="translate(0 0)"/><path d="M97.14,366c-2.85,11.85-12.62,20.12-25,20.12A25.69,25.69,0,0,1,54.55,379l-4.31,4.32a2.13,2.13,0,0,1-3.65-1.51v-15a2.16,2.16,0,0,1,2.14-2.15h15a2.16,2.16,0,0,1,2.14,2.15,2.1,2.1,0,0,1-.64,1.5l-4.58,4.59a17.07,17.07,0,0,0,26.24-3.55,26.79,26.79,0,0,0,1.78-3.92,1,1,0,0,1,1-.77H96.1a1.08,1.08,0,0,1,1.07,1.07A.66.66,0,0,1,97.14,366ZM98,354a2.16,2.16,0,0,1-2.14,2.14h-15a2.14,2.14,0,0,1-1.51-3.65L84,347.83a17.15,17.15,0,0,0-26.28,3.59,27.21,27.21,0,0,0-1.77,3.91,1,1,0,0,1-1,.77H48.26A1.08,1.08,0,0,1,47.19,355v-.23c2.88-11.89,12.75-20.12,25.11-20.12A26,26,0,0,1,90,341.77l4.35-4.31a2.1,2.1,0,0,1,1.51-.64A2.16,2.16,0,0,1,98,339Z" transform="translate(0 0)"/><path d="M221.1,596.58a25.71,25.71,0,1,1,25.71-25.71A25.72,25.72,0,0,1,221.1,596.58Zm0-43.92a18.21,18.21,0,1,0,18.21,18.21A18.22,18.22,0,0,0,221.1,552.66Zm4.28,21.42a1.06,1.06,0,0,1-1.07,1.07H213.6a1.06,1.06,0,0,1-1.07-1.07v-2.14a1.06,1.06,0,0,1,1.07-1.07h7.5V559.08a1.06,1.06,0,0,1,1.07-1.07h2.14a1.06,1.06,0,0,1,1.07,1.07Z" transform="translate(0 0)"/><path d="M72.3,807.06A25.71,25.71,0,1,1,98,781.35,25.72,25.72,0,0,1,72.3,807.06Zm-2.14-35.35a1.05,1.05,0,0,0-1.08-1.07H60.51a1.05,1.05,0,0,0-1.07,1.07V791a1.06,1.06,0,0,0,1.07,1.07h8.57A1.06,1.06,0,0,0,70.16,791Zm15,0a1.05,1.05,0,0,0-1.07-1.07H75.51a1.05,1.05,0,0,0-1.07,1.07V791a1.06,1.06,0,0,0,1.07,1.07h8.57A1.06,1.06,0,0,0,85.15,791Z" transform="translate(0 0)"/><path d="M246.81,774.92a2.16,2.16,0,0,1-2.14,2.14h-15a2.15,2.15,0,0,1-2-1.34,2.09,2.09,0,0,1,.47-2.31l4.62-4.62a17.14,17.14,0,1,0-11.68,29.7,17,17,0,0,0,13.52-6.66,1.11,1.11,0,0,1,.77-.41,1.3,1.3,0,0,1,.84.31l4.59,4.62a1.07,1.07,0,0,1,.06,1.44,25.71,25.71,0,1,1-19.78-42.15,26,26,0,0,1,17.71,7.09l4.35-4.31a2.09,2.09,0,0,1,2.34-.47,2.16,2.16,0,0,1,1.31,2Z" transform="translate(0 0)"/><path d="M342.09,806V756.71c0-1.17.67-1.47,1.5-.64l23.77,23.77a1.93,1.93,0,0,1,.44.64V756.71c0-1.17.67-1.47,1.5-.64l23.77,23.77a2.11,2.11,0,0,1,0,3L369.3,806.62c-.83.84-1.5.54-1.5-.63V782.22a2,2,0,0,1-.44.63l-23.77,23.77C342.76,807.46,342.09,807.16,342.09,806Z" transform="translate(0 0)"/><path d="M546.59,756.71V806c0,1.17-.67,1.47-1.5.63l-23.77-23.77a2,2,0,0,1-.44-.63V806c0,1.17-.67,1.47-1.5.63l-23.77-23.77a2.11,2.11,0,0,1,0-3l23.77-23.77c.83-.83,1.5-.53,1.5.64v23.77a1.93,1.93,0,0,1,.44-.64l23.77-23.77C545.92,755.24,546.59,755.54,546.59,756.71Z" transform="translate(0 0)"/><path d="M373.2,589.08a2.14,2.14,0,0,1-3.65,1.51L358.4,579.44h-8.77a2.16,2.16,0,0,1-2.14-2.14V564.44a2.16,2.16,0,0,1,2.14-2.14h8.77l11.15-11.15a2.13,2.13,0,0,1,3.65,1.51Z" transform="translate(0 0)"/><path d="M392.31,564.78l-9,19.37a.78.78,0,0,1-.7.41l-.24,0a.7.7,0,0,1-.5-.82l3.3-13.53-6.8,1.7h-.2a.82.82,0,0,1-.52-.18.66.66,0,0,1-.22-.65l3.37-13.81a.74.74,0,0,1,.74-.54H387a.73.73,0,0,1,.75.7.67.67,0,0,1-.08.3l-2.87,7.75,6.63-1.64.2,0a.81.81,0,0,1,.57.25A.66.66,0,0,1,392.31,564.78Z" transform="translate(0 0)"/><path d="M518.74,591.84c.87,0,5.56-4.68,5.56-5.59,0-1.64-4.29-2.54-5.56-2.54s-5.56.9-5.56,2.54c0,.91,4.69,5.59,5.56,5.59" transform="translate(0 0)"/><path class="cls-1" d="M527.81,581.67a24.9,24.9,0,0,0,4.66-4.74,21.55,21.55,0,0,0-13.73-5.08c-5,0-10.5,2.1-13.66,5.23a26.16,26.16,0,0,0,4.6,4.59l.36-.23a14.08,14.08,0,0,1,17.45,0Z" transform="translate(0 0)"/><path class="cls-1" d="M536.83,572.63a26.64,26.64,0,0,0,4.62-4.63c-5.61-5.58-14.28-9-22.71-9s-17.17,3.46-22.73,9a27.26,27.26,0,0,0,4.48,4.51l.2-.15c2.28-1.68,9.23-6.81,18.05-6.81,7.49,0,12.28,2.59,18,7Z" transform="translate(0 0)"/><path class="cls-1" d="M545.93,563.54a24.72,24.72,0,0,0,4.72-4.79,46.88,46.88,0,0,0-31.91-12.61A46,46,0,0,0,486.9,558.9a24.5,24.5,0,0,0,4.81,4.72l-.25,0c8.51-7.44,17.15-10.88,27.28-10.88s18.77,3.44,27.18,10.83Z" transform="translate(0 0)"/><path d="M219.81,342.16a2.13,2.13,0,0,0-3.65-1.5L205,351.81h-8.77A2.16,2.16,0,0,0,194.1,354v12.86a2.16,2.16,0,0,0,2.14,2.14H205l11.15,11.15a2.14,2.14,0,0,0,3.65-1.51Z" transform="translate(0 0)"/><path d="M224.5,366.27a2.13,2.13,0,0,0,2.14,2.14,1.93,1.93,0,0,0,.84-.16,8.51,8.51,0,0,0,4.16-11.89L228,358.43a4.24,4.24,0,0,1,.42,1.95c0,4.05-3.88,3.35-3.88,5.89" transform="translate(0 0)"/><path d="M227.85,374.17a2.17,2.17,0,0,0,2.17,2.15,2.52,2.52,0,0,0,.84-.17,16.85,16.85,0,0,0,7.78-6.74l-3.42-2.63a12.73,12.73,0,0,1-3.52,3.94,17,17,0,0,1-2.55,1.48,2.15,2.15,0,0,0-1.3,2m11.24-22a16.87,16.87,0,0,0-8.23-7.55,2.54,2.54,0,0,0-.87-.17,2.15,2.15,0,0,0-.84,4.12A17.79,17.79,0,0,1,231.7,350a12.81,12.81,0,0,1,3.68,4.22Z" transform="translate(0 0)"/><path d="M245.49,374.64a25.72,25.72,0,0,0-11.25-37.9,2.54,2.54,0,0,0-.87-.17,2.15,2.15,0,0,0-.84,4.12c.47.27,1,.44,1.51.7a24.63,24.63,0,0,1,2.75,1.71A21.44,21.44,0,0,1,242.07,372Z" transform="translate(0 0)"/><path d="M222.2,168.12a2.14,2.14,0,0,1-3.65,1.51L207.4,158.48h-8.77a2.16,2.16,0,0,1-2.14-2.14V143.48a2.16,2.16,0,0,1,2.14-2.14h8.77l11.15-11.15a2.13,2.13,0,0,1,3.65,1.51Z" transform="translate(0 0)"/><path d="M247.66,156.89l-2.28,2.28a1.63,1.63,0,0,1-1.14.47,1.65,1.65,0,0,1-1.14-.47l-4.92-4.92-4.92,4.92a1.61,1.61,0,0,1-2.27,0l-2.28-2.28a1.62,1.62,0,0,1,0-2.28l4.92-4.92-4.92-4.92a1.63,1.63,0,0,1-.47-1.14,1.65,1.65,0,0,1,.47-1.14l2.28-2.27a1.61,1.61,0,0,1,2.27,0l4.92,4.92,4.92-4.92a1.65,1.65,0,0,1,1.14-.47,1.63,1.63,0,0,1,1.14.47l2.28,2.27a1.65,1.65,0,0,1,.47,1.14,1.63,1.63,0,0,1-.47,1.14l-4.92,4.92,4.92,4.92a1.62,1.62,0,0,1,0,2.28Z" transform="translate(0 0)"/><path d="M362.28,155.75l3.28,3.28a1.29,1.29,0,0,1,0,2l-17.35,17.35a1.44,1.44,0,0,1-1,.46,1.12,1.12,0,0,1-.94-.46l-3.28-3.29a1.1,1.1,0,0,1-.47-.93,1.48,1.48,0,0,1,.47-1.06l17.35-17.34a1.4,1.4,0,0,1,1-.47A1.44,1.44,0,0,1,362.28,155.75Zm8.32-27.07a20.51,20.51,0,0,1,20.62,20.62,15.7,15.7,0,0,1-2,8.09,21,21,0,0,1-3.75,4.69,26.42,26.42,0,0,0-1.87,2,3.77,3.77,0,0,0-.82,2.11,12.67,12.67,0,0,1-12.66,12.65,3.28,3.28,0,1,1,0-6.56,6,6,0,0,0,6.09-6.09,9.44,9.44,0,0,1,1.29-5,21.25,21.25,0,0,1,2.93-3.34,20.73,20.73,0,0,0,2.93-3.34,10.11,10.11,0,0,0,1.29-5.16,14.06,14.06,0,1,0-28.12,0,3.29,3.29,0,1,1-6.57,0,20.52,20.52,0,0,1,20.63-20.62Zm-2.81,20.62a2.81,2.81,0,0,1,4.8-2,2.85,2.85,0,0,1,.82,2.11,3,3,0,0,0,.94,2.23,3.17,3.17,0,0,0,2.34.93A3.18,3.18,0,0,0,380,149.3a9.38,9.38,0,0,0-18.75,0,3.29,3.29,0,1,0,6.57,0ZM402,122.58a1.11,1.11,0,0,1,.47.94,1.45,1.45,0,0,1-.47,1.06l-10.19,10.19a1.26,1.26,0,0,1-.94.35,1.66,1.66,0,0,1-1.05-.35l-3.28-3.28a1.67,1.67,0,0,1-.36-1.05,1.24,1.24,0,0,1,.36-.94l10.19-10.2a1.46,1.46,0,0,1,1.06-.47,1.1,1.1,0,0,1,.93.47Z" transform="translate(0 0)"/><path d="M383.17,354v4.29A10.74,10.74,0,0,1,372.46,369a11.07,11.07,0,0,1-3.65-.64l-3.21,3.22a14.76,14.76,0,0,0,6.86,1.7,15,15,0,0,0,15-15V354a2.14,2.14,0,0,1,4.28,0v4.29a19.28,19.28,0,0,1-17.14,19.14v4.42h8.57a2.15,2.15,0,1,1,0,4.29H361.75a2.15,2.15,0,0,1,0-4.29h8.57v-4.42a18.8,18.8,0,0,1-7.87-2.71l-8.5,8.51a1.08,1.08,0,0,1-1.54,0l-2.75-2.75a1.08,1.08,0,0,1,0-1.54L391,337.59a1.06,1.06,0,0,1,1.54,0l2.75,2.74a1.08,1.08,0,0,1,0,1.54Zm-28.59,11.45a18.92,18.92,0,0,1-1.4-7.16V354a2.14,2.14,0,0,1,4.28,0v4.29A15.25,15.25,0,0,0,358,362Zm7.17-7.16V341.1a10.71,10.71,0,0,1,20.79-3.64Z" transform="translate(0 0)"/><path d="M508.2,327.89a2.16,2.16,0,0,1-2.14,2.14h-9.64a2.16,2.16,0,0,1-2.15-2.14V306.47a2.16,2.16,0,0,1,2.15-2.15h9.64a2.16,2.16,0,0,1,2.14,2.15Zm-7.5-6.43a2.15,2.15,0,1,0,2.14,2.15A2.14,2.14,0,0,0,500.7,321.46Zm45.3-10a9.17,9.17,0,0,1,.5,2.55,7.05,7.05,0,0,1-1.44,4.58,7.06,7.06,0,0,1,0,3.92,6.91,6.91,0,0,1-1.81,3.15,8.1,8.1,0,0,1-1.64,6.06c-1.44,1.7-3.65,2.58-6.59,2.61H530.7c-4.79,0-9.31-1.57-12.93-2.81a23.17,23.17,0,0,0-5.29-1.48,2.2,2.2,0,0,1-2.14-2.14V306.43a2.24,2.24,0,0,1,2-2.14c1.24-.1,4.46-4.08,5.93-6a45.94,45.94,0,0,1,3.38-4c1.31-1.31,1.68-3.32,2.08-5.26s.77-4.05,2.21-5.46a2.11,2.11,0,0,1,1.5-.63c7.5,0,7.5,6,7.5,8.57a13.24,13.24,0,0,1-1.87,6.43,7.64,7.64,0,0,0-1,2.14h9.27a6.52,6.52,0,0,1,6.43,6.43A7.91,7.91,0,0,1,546,311.45Z" transform="translate(0 0)"/><path d="M509.53,126.78a4.75,4.75,0,1,1,4.74-4.75,4.75,4.75,0,0,1-4.74,4.75m19.84-1.14a4.75,4.75,0,1,0-4.74-4.74,4.74,4.74,0,0,0,4.74,4.74m-34.58,28.42s11.19,16.73,26.08,18,25.22-18.41,25.22-18.41l-6.52-1.57-.28,2.41-4.25-.85-2.69-1.28-2.13,2.84-3.83-2.7-1.27,2.7-3-.57-3-1.56-4.4,1.14-3.26.28-1.27-2.27-2.27,1.7-4.4.57v-4.11l-4.25,3.4Zm67.35-3.29,1.63,2.3-.78,9.56-2.58-3.57-.24.67L560,167l-3.45-.74-1.37.29L554,174.36l-2.37-2-2.38,5.18-2.3-1.82-6.4,8.08-1.3-2.26-4.54,4.24-.95-2.69-5.11,3.67-6.07,1.64-5.22-2.67-2.9,3.76-2.75-4-4.3-.36-5.27-4.37-.5,1.74-5.21-1.83-.41-3.34-2.69,1.56-.57-4.76-4-.92-.31-1.48-3,2-.55-7.31-3.05,2.6v-5.64l-1.69-2.68-.11-5.43-5.21,2.2,4.3-9.34L474,145.33l4.44-1.77-1.18-.16,6.29-4.33-5.49-5.89,10.52,1.06,8.59-5.56a12.88,12.88,0,0,1,10.78-20,13,13,0,0,1,11.12,6.39,12.9,12.9,0,0,1,24,6.52,12.82,12.82,0,0,1-1.53,6.06,48,48,0,0,0,6.63,3.48,16,16,0,0,1,2.24,1.11l1,.67-.61,1.58,2,.8,9.39,1.17-4.77,3.28,8.14-1-4.42,4.93,7,3.75L563,150.08Zm-64.08-29.16a9.83,9.83,0,0,0,2.24,6.26l.1.12.16.17c.2.22.4.43.61.63l.17.15c.2.18.4.36.61.52l.2.15c.21.15.43.3.66.44l.2.12a7,7,0,0,0,.72.37l.19.1.78.31.18.06q.42.13.84.24l.16,0c.3.06.6.11.9.14l.14,0a9,9,0,0,0,1.05.06h.46a.83.83,0,0,0,.07-.13l.09-.15c.17-.3.35-.6.54-.89l.08-.12a13,13,0,0,1,1.53-1.85l0,0a12.27,12.27,0,0,1,1.88-1.56l.05,0c.31-.21.63-.4,1-.58l.11-.06a10.17,10.17,0,0,1,1.05-.51l.14-.06c.3-.12.61-.24.92-.34l.28-.08a10.25,10.25,0,0,1,1.09-.28l.15,0c.32-.06.66-.11,1-.15l.32,0c.38,0,.77,0,1.16,0s.79,0,1.18,0l.3,0c.35,0,.7.09,1,.16h.1c.38.08.75.18,1.12.29l.22.07c.35.11.69.24,1,.38l0,0a11.29,11.29,0,0,1,1.11.53l0,0a13.57,13.57,0,0,1,1.92,1.27,12.84,12.84,0,0,1,2.58,2.82l0,.07a11.18,11.18,0,0,1,.62,1v0l.07.11c.33,0,.66-.09,1-.16l.24-.07c.25-.06.49-.12.72-.2l.31-.1.61-.25.34-.15.52-.28.37-.21.43-.28.4-.29c.1-.07.2-.16.3-.24a12.2,12.2,0,0,0,.91-.85l.14-.15c.14-.15.26-.31.39-.47l.23-.3a9.82,9.82,0,0,0,1.94-5.84,9.9,9.9,0,0,0-19.57-2.16h-2.93a9.9,9.9,0,0,0-19.57,2.16ZM510,137.48a9.91,9.91,0,1,0,19-3.84v0s0,0,0-.06a10.38,10.38,0,0,0-.57-1.1l-.19-.32a11.23,11.23,0,0,0-.7-1c-.08-.1-.17-.18-.25-.27s-.39-.43-.6-.63l-.36-.33c-.29-.24-.59-.48-.9-.69l-.29-.17c-.27-.17-.54-.32-.82-.46l-.36-.17a8.85,8.85,0,0,0-1.15-.45l-.13,0a10.5,10.5,0,0,0-1.14-.26l-.32,0a11.4,11.4,0,0,0-1.32-.09,9.5,9.5,0,0,0-1.31.09l-.31,0a10.86,10.86,0,0,0-1.16.26l-.11,0a10.58,10.58,0,0,0-1.18.45l-.3.15a9.58,9.58,0,0,0-.89.49l-.24.15c-.32.22-.63.46-.93.71l-.31.29a8.5,8.5,0,0,0-.66.68l-.21.22a11.33,11.33,0,0,0-.72,1l-.17.29a11.13,11.13,0,0,0-.57,1.08s0,.06,0,.1l0,0A9.77,9.77,0,0,0,510,137.48Zm51.71,9.88-1.44-.77-5.16-.57,3-3.31-3.43.42-.27-4.61-2.42-.36-4.92-2,.76-2-.75-.33a51.91,51.91,0,0,1-7.12-3.75c-.12.13-.26.26-.39.39l-.22.23-.68.62-.29.24c-.22.18-.45.36-.68.52l-.39.26c-.22.14-.43.28-.66.41s-.35.19-.53.28l-.59.29c-.22.1-.46.19-.69.28l-.49.18c-.28.1-.57.17-.86.25l-.4.1c-.21.05-.43.08-.65.12a12.75,12.75,0,0,1,.41,3.17,12.91,12.91,0,1,1-25.45-3l-.62,0c-.23,0-.45-.06-.67-.1l-.56-.08c-.26-.05-.51-.12-.77-.19l-.42-.11c-.27-.08-.52-.17-.78-.27l-.38-.14c-.25-.1-.5-.22-.75-.34l-.36-.17-.7-.4-.36-.22c-.22-.15-.44-.3-.65-.46l-.35-.26c-.21-.17-.41-.34-.6-.52a2.11,2.11,0,0,1-.23-.19l-9.78,6.33L485.7,137l2.44,2.61-2.78,1.92,4.78.66L481,145.79l2,1.12-2.22,4.83,2.16-.91.18,9,1.71,2.73,2.61-2.22.59,8,2.4-1.64.83,4,4.2,1,.28,2.33,2.69-1.56.73,6,.46.16.89-3.09,8.07,6.69,4.78.41,1.22,1.76,1.91-2.48,6.41,3.28L527.3,184l7.92-5.68.75,2.13,4-3.7,1,1.71,5.5-6.95,1.67,1.31,2.44-5.31,1.31,1.11.74-4.63,4-.84.51.11.08-4.1,2.37-6.42,1.11,1.53,0-.36-2.58-3.65,3.33-2.79Z" transform="translate(0 0)"/><path d="M52.62,548.87H29.94a4.21,4.21,0,0,1-4.33-4.33V516.19a4.22,4.22,0,0,1,4.33-4.34H52.62A4.21,4.21,0,0,1,57,516.19V518a1.5,1.5,0,0,1-3,0v-1.77a1.2,1.2,0,0,0-1.33-1.34H29.94a1.21,1.21,0,0,0-1.33,1.34v28.35a1.2,1.2,0,0,0,1.33,1.33H52.62A1.2,1.2,0,0,0,54,544.54v-1.77a1.5,1.5,0,0,1,3,0v1.77A4.21,4.21,0,0,1,52.62,548.87Z" transform="translate(0 0)"/><path d="M61.39,530.36a2.09,2.09,0,0,0-.62-1.5L49.87,518a2.17,2.17,0,0,0-1.52-.64,2.14,2.14,0,0,0-1.51.64l-1.26,1.25a2.12,2.12,0,0,0,0,3l4.91,4.92H38.7a2,2,0,0,0-2,2.14v2.15a2,2,0,0,0,2,2.14H50.49l-4.91,4.9A2.2,2.2,0,0,0,45,540a2.16,2.16,0,0,0,.63,1.52l1.26,1.26a2.21,2.21,0,0,0,1.51.62,2.24,2.24,0,0,0,1.52-.62l10.9-10.9a2.17,2.17,0,0,0,.62-1.53" transform="translate(0 0)"/><path d="M118.88,548.87H96.2a4.21,4.21,0,0,1-4.33-4.33v-1.77a1.5,1.5,0,0,1,3,0v1.77a1.2,1.2,0,0,0,1.33,1.33h22.68a1.2,1.2,0,0,0,1.33-1.33V516.19a1.2,1.2,0,0,0-1.33-1.34H96.2a1.21,1.21,0,0,0-1.33,1.34V518a1.5,1.5,0,0,1-3,0v-1.77a4.22,4.22,0,0,1,4.33-4.34h22.68a4.21,4.21,0,0,1,4.33,4.34v28.35A4.21,4.21,0,0,1,118.88,548.87Z" transform="translate(0 0)"/><path d="M99.73,530.36a2.09,2.09,0,0,0-.62-1.5L88.21,518a2.19,2.19,0,0,0-1.53-.64,2.12,2.12,0,0,0-1.5.64l-1.26,1.25a2.12,2.12,0,0,0,0,3l4.91,4.92H77a2,2,0,0,0-2,2.14v2.15a2,2,0,0,0,2,2.14H88.83l-4.91,4.9a2.2,2.2,0,0,0-.63,1.53,2.16,2.16,0,0,0,.63,1.52l1.26,1.26a2.19,2.19,0,0,0,1.5.62,2.26,2.26,0,0,0,1.53-.62l10.9-10.9a2.17,2.17,0,0,0,.62-1.53" transform="translate(0 0)"/><line class="cls-2" x1="148.82" x2="148.82" y2="841.89"/><line class="cls-2" x1="297.64" x2="297.64" y2="841.89"/><line class="cls-2" x1="446.46" x2="446.46" y2="841.89"/><line class="cls-3" y1="210.47" x2="595.28" y2="210.47"/><line class="cls-3" y1="420.94" x2="595.28" y2="420.94"/><line class="cls-3" y1="631.42" x2="595.28" y2="631.42"/></svg>